<svg version="1.0" xmlns="http://www.w3.org/2000/svg" width="178.667" height="264" viewBox="0 0 134 198"><path d="M0 67.9v67.9l3.7-.4c15.3-1.6 28.6-2.2 32.9-1.6 2.8.5 7.7 2.3 10.9 4.1l5.8 3.3-.6-3.4c-.4-1.8-.9-7.6-1.3-12.9l-.7-9.7-5.6.1c-11.3 0-23.3-5.5-29.1-13.4C11.4 95.5 8 82 11.1 82c.5 0 5.2 1.2 10.2 2.6 15.4 4.4 21.1 8 26.9 16.8 3.6 5.6 3.8 5.8 3.8 2.8s2.4-16.7 3.5-20.4c.6-1.6.1-1.8-3.7-1.8-5.7 0-13-4.3-19.5-11.4-7.5-8.1-10.3-14.5-10.2-22.5.2-7.8 1-12.3 2.4-12.8.6-.2 6.7 5.2 13.5 11.9 9.1 8.9 13.4 14 15.8 18.4 1.7 3.4 3.2 6.9 3.2 7.8 0 2.9 1.5 1.6 4.3-3.8 1.6-3 4.8-8.4 7.1-11.9l4.3-6.5-4-1.2c-4.9-1.5-12-7.9-14.7-13.4-3.9-8.2-1.8-19.6 5.5-29.4 3.8-5.1 6.2-6.5 6.9-4 .2.7 2.9 9.3 6 19.1C75.5 32 78 40.9 78 42.1c0 1.7 1 1.1 6-3.3 5.7-5 6-5.5 6-9.9 0-5 2.6-9.8 7-13.1 2.6-1.9 17.5-7.8 19.8-7.8 1.8 0 1.5 3.1-.8 9.4-4.3 11.4-11.2 17.6-20.1 18-4.7.2-5.4.7-10.7 6-4.8 4.8-5.2 5.5-2.9 4.6 5.2-1.9 15.9-1.1 28 2 6.7 1.7 14.2 3 17.6 3h6.1V0H0v67.9z"/><path d="M65.4 16.5c.2 10.6.8 12.3 7.6 24.4 2.6 4.6 3 5 3 2.7 0-1.4-2.2-9.5-4.9-17.9-2.7-8.3-5.1-16.1-5.4-17.2-.3-1.1-.5 2.5-.3 8zm-6.7-4.3c-7 12.1-5.9 22.8 3.1 31 6.4 5.8 9.5 7 4.9 1.8-7.6-8.4-9.5-17.4-6.1-30.2.8-3.3 1.3-6.2 1-6.5-.2-.2-1.5 1.5-2.9 3.9zm43.8 3.2C96.7 18.1 92 23.1 92 26.6c0 2.2.4 2 4.8-2.4 2.6-2.6 6.5-6.2 8.7-8 4.8-3.7 3.8-4-3-.8z"/><path d="M61.6 20.2c-1 5.6-.2 10.5 2.6 16.9 2 4.8 8.3 11.8 9.4 10.6.4-.3-1.1-3.7-3.3-7.4-5.2-8.9-6.4-12.2-7.3-19.1l-.6-5.7-.8 4.7zm40.6 1.4c-2.9 2.5-5.7 5.5-6.3 6.6l-1.1 2.1 2.8-2.1c3.9-2.7 10.9-10 10.3-10.7-.3-.2-2.8 1.6-5.7 4.1zm8.5-1.2c-3.7 4.7-8.6 9.6-12.2 11.8-2.7 1.8-2.8 1.9-.5 1.3 4.7-1.2 10.3-6 13.2-11.3 3.4-6 3.2-6.7-.5-1.8zM24 47.7c0 7.6 3.3 14.6 10.2 21.9 5.4 5.8 11.3 9.7 16.1 10.8 4 .9 3.3.2-2.8-3.3-3.1-1.7-7.4-4.8-9.7-6.9-4-3.6-9.8-13.9-9.8-17.5 0-3.2-2.2-10.7-3.1-10.7-.5 0-.9 2.6-.9 5.7zm8.5 1.3c3.1 6.2 10.4 16.9 13.1 19.1 1 .8.7-.1-.8-2.1-1.4-1.9-4.9-7.3-7.8-12-6.3-10.3-8.2-12.4-4.5-5zm54-2c-2.9.7-2.9.8 1 .9 2.2.1 8.5.8 13.9 1.6 5.5.8 10.1 1.3 10.3 1.2.4-.5-13.1-3.5-18.2-4.1-2.2-.2-5.3-.1-7 .4zM41 56c2.8 4.7 6.8 10.5 8.8 12.9 2.1 2.5 4.3 5.2 5 6 .7.9.4-.7-.7-3.6-2.2-6.1-7.1-13-13.6-19.3l-4.7-4.5L41 56z"/><path d="M30 51.1c-.1 6.9 8 18.3 16.1 22.8l4.4 2.5-6.6-7.1c-3.7-3.9-8.3-9.9-10.3-13.4-1.9-3.5-3.6-5.7-3.6-4.8zm61 .9c4.1 1.1 12.2 2.3 18 2.5l10.5.5-9-1.9c-4.9-1.1-13-2.2-18-2.5l-9-.5L91 52z"/><path d="M70.9 59.3c-2.6 3.9-5.8 9.2-7.2 11.7l-2.6 4.5h8.2c7.9 0 8.6.2 20.2 5.7 6.6 3.2 13.3 5.8 14.8 5.8 6.5 0 3 6.4-6.1 11.1-4 2-6.1 2.4-13.7 2.4-10.8-.1-17.5-2.6-23.1-8.7-1.9-2.2-3.7-3.8-3.9-3.6-.5.4-3.5 17.4-3.5 19.5 0 1.1.4 1.1 2.1.2 4.2-2.2 12-.5 23.6 5 6.1 2.8 14.2 5.9 18.2 6.8 8.2 2 9 3.5 4 7.8-6.4 5.3-10.8 7-18.9 6.9-11.7-.1-20.9-5-26.2-13.9l-3-5 .6 11.2c.7 13.4 1.1 14.7 4 13.8 1.1-.4 5.8-.9 10.3-1.2 9.7-.6 14.6.6 24.8 6.6 3.8 2.2 8.8 4.3 11.2 4.7 2.4.3 4.3 1.1 4.3 1.8-.1 1.8-8.5 7.6-14.7 10.2-12.4 5.1-25.2 1.4-33.6-9.5-1.7-2.2-3.2-3.9-3.3-3.8-.1.1.7 4.9 1.7 10.7 2.2 11.5 2.9 25.8 1.6 33.2l-.8 4.8H134V52.7l-3.2 4.1c-7.4 9.1-15.3 13.4-24.6 13.4-8.3 0-19.2-5.1-25.1-11.9-2.3-2.5-4.1-5-4.1-5.4 0-2.2-1.9-.3-6.1 6.4z"/><path d="M80.9 54.9c1.3 1.8 4.4 4.8 7 6.7 11.7 8.5 24.1 8.5 34.6 0l3-2.5-5.5 2.6c-8.2 3.9-16.3 3.8-25.5-.5-3.8-1.8-8.3-4.3-10-5.6-5.2-3.9-6-4.1-3.6-.7z"/><path d="M88.3 55.5c10.9 7.7 20.2 8.8 30.7 3.9l6.5-3.1-9 .5c-8 .4-19.5-.9-29.5-3.4-2-.5-1.8-.1 1.3 2.1zM64.5 78.7c1.6 1.6 21.4 9 27.4 10.2 5.6 1.2 8.4.9 3.4-.3-1.5-.4-7.2-2.7-12.6-5.2-9-4.1-20.6-7.1-18.2-4.7zm20 3.3c4.4 2.2 8.5 3.9 9 3.9 1.4 0-11.5-6.5-14.5-7.3-1.4-.3 1.1 1.2 5.5 3.4zm-19.6 2.4c7.6 7.8 18.3 11.3 28.4 9.3 4.7-1 4.1-2.2-1.6-3-2.4-.3-9.8-2.7-16.5-5.2C68.5 83 62.7 81 62.3 81c-.4 0 .8 1.5 2.6 3.4z"/><path d="M60 84.8c0 3.1 4.6 8 10.4 11 4.4 2.3 6.3 2.7 14.1 2.7 8.1 0 9.5-.3 13.8-2.8 2.6-1.5 4.7-2.9 4.7-3.1 0-.2-2.4.5-5.2 1.6-11.4 4.5-22.7 2-33.2-7.3-3.9-3.5-4.6-3.8-4.6-2.1zm-34.5 5C29.8 92.2 37 97 45.3 103l2.1 1.5-1.9-3.4c-2.7-4.6-9.7-9.6-16.9-12.1-8.1-2.7-9.1-2.5-3.1.8zM19 91.4c2.9 3.2 9.8 8.3 15.5 11.5 2.2 1.2 2.9 1.4 1.5.4-1.4-1-6.3-4.7-11-8.2-4.7-3.5-7.4-5.2-6-3.7zm-1.2 3.3c2.9 4.2 7.4 7.9 13.1 10.7 7.1 3.6 10.2 4.1 4.2.7-6.2-3.5-11.1-7.1-16-11.5l-3.4-3.1 2.1 3.2zm7.2-2.4c0 .5 13.5 10.2 16.8 12.1 2.9 1.7.8-.5-4-4.1-6.1-4.5-12.8-8.7-12.8-8z"/><path d="M17.5 99.8c4.7 7.1 16.5 13.3 24.9 13.1 2.6 0 2.2-.3-2.4-1.8-8.1-2.6-14.9-6.3-20.4-11.2l-4.9-4.4 2.8 4.3zM74 116.4c7.4 3 15.3 5.7 17.5 6l4 .6-4.5-1.4c-2.5-.7-9-3.4-14.6-5.9-5.6-2.6-11.4-4.7-13-4.7-1.9 0 1.6 1.9 10.6 5.4zm-13 .5c8.7 7.8 18.6 11.2 28.7 9.6l4.8-.7-5.5-1.5c-3-.7-10-3.3-15.6-5.7-5.6-2.4-11.7-4.7-13.5-5.1l-3.4-.7 4.5 4.1zm1.5 6.9c1.7 1.9 4.7 4.2 6.7 5.3 5.5 2.8 6 2.3.8-.7-2.5-1.4-5.8-3.7-7.5-5.2l-3-2.7 3 3.3zm14 5.3c1.9.7 13.2 1.3 12.4.5-.2-.2-3.5-.6-7.4-.8-4-.3-6.1-.2-5 .3zm-.7 2.6c.7.3 1.6.2 1.9-.1.4-.3-.2-.6-1.3-.5-1.1 0-1.4.3-.6.6zm13 0c.7.3 1.6.2 1.9-.1.4-.3-.2-.6-1.3-.5-1.1 0-1.4.3-.6.6zm-7 1c1.2.2 3 .2 4 0 .9-.3-.1-.5-2.3-.4-2.2 0-3 .2-1.7.4zM25 135.9l-4.5.7 6 .8c3.3.5 9.4 1.4 13.5 2.1 6.5 1.1 7.2 1.1 5.5-.1-2.4-1.8-11.2-4.5-13.9-4.2-1.2 0-4.1.4-6.6.7zm-6 5.2c8 2 30 3.7 24.5 1.9-3.6-1.2-15.4-2.8-25-3.3l-7-.5 7.5 1.9zM0 169.2V198h56.8l1.1-4.4c1.7-6.8 1.3-17.7-1-31.2-1.2-6.7-2.5-12.7-2.9-13.3-.4-.8-2.6 0-6.5 2.3-8 4.9-11.6 5.9-19.3 5.4-8.6-.5-14.5-3.3-22.2-10.7l-6-5.7v28.8z"/><path d="M7.5 142.6c6.8 5.4 16.6 7.2 29.2 5.3l8.8-1.3-11-.7c-6-.4-14.7-1.6-19.2-2.8-9.6-2.5-10.4-2.5-7.8-.5zm58.8-.9c.9.2 2.5.2 3.5 0 .9-.3.1-.5-1.8-.5-1.9 0-2.7.2-1.7.5zm12.6 2.4c4.1 1 7.6 1.7 7.9 1.5.6-.7-9.9-3.6-12.7-3.5-1.4 0 .7.9 4.8 2zM64.2 148c5.3 2.8 14.4 5 20.3 4.9 2.7-.1 4.1-.3 3-.6-1.1-.2-6.7-1.8-12.4-3.4-12.4-3.5-16.4-3.8-10.9-.9zm12.6-1.3c.7.3 1.6.2 1.9-.1.4-.3-.2-.6-1.3-.5-1.1 0-1.4.3-.6.6zm7 2c.7.3 1.6.2 1.9-.1.4-.3-.2-.6-1.3-.5-1.1 0-1.4.3-.6.6zM39 151.1c-3.6 1-8.2 1.8-10.2 1.8-2 .1-4 .6-4.4 1.3-1.3 2 12.2.1 17.9-2.6 6.1-2.9 5.5-3-3.3-.5zm48.8-1.4c.7.3 1.6.2 1.9-.1.4-.3-.2-.6-1.3-.5-1.1 0-1.4.3-.6.6zm-67 4c.7.3 1.6.2 1.9-.1.4-.3-.2-.6-1.3-.5-1.1 0-1.4.3-.6.6zm50.7 1.5c3.4 2 5.4 2.3 13.5 2.3 6.2 0 10.2-.5 11.5-1.3 1.7-1.1 1-1.3-5-.8-6.4.5-17.3-.5-22.1-1.9-1-.4-.1.4 2.1 1.7zm-.1 3.7c.8 1.3 9 3.1 13.3 3 3.1-.1 2.7-.3-2.2-1-3.3-.5-7.3-1.3-8.8-1.9-1.5-.5-2.5-.5-2.3-.1zm18.4 1.8c.7.3 1.6.2 1.9-.1.4-.3-.2-.6-1.3-.5-1.1 0-1.4.3-.6.6z"/></svg>