<svg xmlns="http://www.w3.org/2000/svg" version="1.0" width="1198.667" height="1205.333" viewBox="0 0 899 904"><path d="M0 452v452h899V0H0v452zM491.5 15.1C702 32.3 848.3 167.7 877.4 372c4.1 28.6 5.1 43.6 5.1 77s-1 48.4-5.1 76.9C850 718.5 718.8 850.2 526 879c-34.9 5.2-88.3 7-121.5 4.1-64.7-5.7-118.7-20.1-170-45.4C103.7 773 24.7 648.1 12.9 487.2c-2.4-32.9-.4-85 4.6-118.2 13.7-92.4 53-173.4 113.5-234.1 21.9-22 38.3-35.3 62.6-51.2C260 40.6 335.7 17.8 427 13.6c11.5-.5 51.1.4 64.5 1.5z"/><path d="M438.5 25.6c-44.2 2.7-83 18-116 45.6-51.4 43-88.6 109.4-110.4 197.3-8.6 34.6-14.1 69.9-18.3 117.5-2 22.9-1.7 107.4.5 132 5.5 61.6 15.2 110.3 31.3 157.1 39.6 115.3 110.5 184.5 199.8 195 15.8 1.9 45.3.6 60.2-2.5 93.2-19.6 163-103.8 196.4-236.8 14.2-56.6 20.3-110.8 20.4-180.8 0-63.1-4.5-110.8-15.5-162C657 148.3 587.8 55.5 495.7 31.6c-16.3-4.2-41.7-6.9-57.2-6zM480 231.3v5.4l-12.5.7c-22.6 1.2-33.4 4.4-42.7 12.6-5.6 4.9-8.3 11-9.8 22-.8 6-1 52.6-.8 156.5.3 139.2.4 148.3 2.1 153.3 2.2 6.6 6.5 11.5 11.8 13.6 6 2.4 24.6 3.6 58.9 3.6 71.1 0 89.1-4.5 111.5-28.1 10.8-11.4 20.7-27.7 30.3-49.7l3.1-7.3 3.8.7c2.1.4 4.3.9 4.9 1.3.7.4-4.1 17-13.8 47.6-8.1 25.8-15.7 50-16.9 53.7l-2 6.8H300v-11h10.3c18.3 0 30-4 37.8-12.9 4.6-5.1 6.4-10.7 7.9-23.6 1.3-12.1 1.3-289.7 0-302-1.6-14-4.1-21.2-9.2-26.1-8.3-8-19-11.4-36.5-11.4H300v-11h180v5.3z"/><path style="fill:#fc0;stroke-width:1.47894" d="M544.613 1177.11c-211.869-16.11-378.314-121-464.344-292.62-31.306-62.452-50.496-129.67-60.19-210.833-3.676-30.777-3.649-110.216.05-147.155 11.84-118.214 52.618-222.393 120.12-306.879 17.524-21.933 61.06-65.06 81.928-81.158C309.824 70.85 411.62 32.654 534.26 21.367c22.07-2.032 36.654-2.354 75.426-1.667 48.391.856 66.45 2.345 103.525 8.536 146.578 24.473 267.827 95.206 349.621 203.957 20.281 26.965 32.95 47.434 48.972 79.123 32.218 63.721 51.057 129.217 60.621 210.749 3.23 27.534 4.471 92.295 2.38 124.23-6.093 93.08-31.66 184.89-71.45 256.568-80.644 145.275-216.695 237.472-393.84 266.89-46.486 7.719-118.12 10.915-164.902 7.358zm73.825-16.187c23.608-1.8 36.683-4.343 57.695-11.218 141.89-46.422 235.426-211.125 257.754-453.865 2.636-28.663 2.608-167.026-.04-195.22-15.864-168.894-64.641-298.322-143.73-381.383-35.555-37.34-81.606-65.399-126.466-77.054-41.6-10.809-90.368-11.114-130.696-.817-47.4 12.102-86.708 34.988-124.543 72.512-72.147 71.554-120.573 181.756-141.676 322.408-9.139 60.913-9.778 71.538-9.75 161.944.023 70.488.455 88.176 2.637 107.962 8.255 74.864 19.298 129.363 37.456 184.867 48.31 147.664 134.124 240.923 244.207 265.393 25.536 5.677 45.887 6.856 77.152 4.471z" transform="scale(.75)"/><path style="fill:#fc0;stroke-width:1.47894" d="M401.156 824.71v-6.452l17.377-.755c25.538-1.11 39.738-7.024 48.79-20.32 9.09-13.351 9.496-24.592 8.872-245.551-.497-175.664-.753-192.306-3.096-201.124-3.283-12.359-8.244-19.766-16.926-25.273-9.95-6.311-19.427-8.722-38.38-9.761l-16.637-.913v-12.858h238.109v12.848l-20.336 1.724c-29.341 2.489-41.296 6.132-52.076 15.871-7.551 6.822-11.076 13.457-13.31 25.054-1.249 6.475-1.583 63.387-1.25 212.93.436 195.932.564 204.3 3.215 209.27 6.668 12.5 12.102 15.638 30.925 17.858 21.713 2.561 131.013 1.009 148.502-2.109 27.837-4.962 43.317-13.004 61.629-32.018 15.204-15.787 21.96-26.002 35.999-54.426l11.176-22.63 4.616.988c2.539.544 4.794 1.144 5.012 1.334.607.531-7.796 28.687-26.377 88.383l-16.908 54.32-204.463.031-204.463.031z" transform="scale(.75)"/></svg>