<svg xmlns="http://www.w3.org/2000/svg"><defs><font id="Kurye-Light" horiz-adv-x="581"><font-face font-family="Kurye II" font-weight="300" ascent="800" descent="-200" x-height="500" cap-height="700" bbox="-84 -233 1359 931" underline-thickness="50" underline-position="-125" unicode-range="U+000D-FB05"/><glyph glyph-name="f_f" unicode="ff" horiz-adv-x="647" d="M276 660q-161 0-161-160h271q0 100 54.5 155T601 710v-50q-161 0-161-160h161v-54H440V0h-54v446H115V0H61v500q0 100 54.5 155T276 710v-50z"/><glyph glyph-name="fi" unicode="fi" horiz-adv-x="570" d="M276 660q-161 0-161-160h361V0h-54v446H115V0H61v500q0 100 54.5 155T276 710v-50zm134 10q0 18 10.5 29t28.5 11 28.5-11 10.5-29q0-17-10.5-28.5T449 630t-28.5 11.5T410 670z"/><glyph glyph-name="fl" unicode="fl" horiz-adv-x="544" d="M276 660q-161 0-161-160h295v200h52V0h-52v446H115V0H61v500q0 100 54.5 155T276 710v-50z"/><glyph glyph-name="f_f_i" unicode="ffi" horiz-adv-x="897" d="M276 660q-161 0-161-160h271q0 100 54.5 155T601 710v-50q-161 0-161-160h363V0h-54v446H440V0h-54v446H115V0H61v500q0 100 54.5 155T276 710v-50zm461 10q0 18 10.5 29t28.5 11 28.5-11 10.5-29q0-17-10.5-28.5T776 630t-28.5 11.5T737 670z"/><glyph glyph-name="f_f_l" unicode="ffl" horiz-adv-x="870" d="M276 660q-161 0-161-160h271q0 100 54.5 155T601 710v-50q-161 0-161-160h297v200h52V0h-52v446H440V0h-54v446H115V0H61v500q0 100 54.5 155T276 710v-50z"/><glyph glyph-name="f_t" unicode="ft" horiz-adv-x="641" d="M276 660q-161 0-161-160h263v118h54V500h161v-54H432V200q0-158 161-158v-52q-106 0-160.5 55T378 200v246H115V0H61v500q0 100 54.5 155T276 710v-50z"/><glyph glyph-name="t_f" unicode="tf" horiz-adv-x="631" d="M261 42v-52q-106 0-160.5 55T46 200v418h54V500h271q0 100 54.5 155T586 710v-50q-161 0-161-160h161v-54H425V0h-54v446H100V200q0-158 161-158z"/><glyph glyph-name=".notdef" horiz-adv-x="500"/><glyph glyph-name="uni0000" horiz-adv-x="0"/><glyph glyph-name="uni000D" horiz-adv-x="250"/><glyph glyph-name="uni000D" horiz-adv-x="250"/><glyph glyph-name="CR" horiz-adv-x="250"/><glyph glyph-name="space" horiz-adv-x="260"/><glyph glyph-name="exclam" unicode="!" horiz-adv-x="207" d="m80 221-3 479h53l-5-479H80zM64 30q0 17 11.5 28.5T104 70t28.5-11.5T144 30 132.5 1.5 104-10 75.5 1.5 64 30z"/><glyph glyph-name="quotedbl" unicode="&quot;" horiz-adv-x="313" d="m52 467-8 233h59L93 467H52zm168 0-8 233h59l-10-233h-41z"/><glyph glyph-name="numbersign" unicode="#" horiz-adv-x="817" d="m176 0 39 193H39l10 52h176l43 215H96l10 53h173l37 187h54l-37-187h223l37 187h54l-37-187h168l-10-53H599l-43-215h165l-10-52H546L507 0h-54l39 193H269L231 0h-55zm104 245h222l43 215H322z"/><glyph glyph-name="dollar" unicode="$" horiz-adv-x="565" d="M521 175q0-71-56-125T309-9v-68h-52v69q-98 9-157 66.5T36 196h54q6-57 55-105.5T290 42q80 0 128.5 38.5T467 177q0 46-23 77t-59.5 46.5-81 26.5-88.5 23.5-81 31T74.5 437 52 527q0 72 57 123.5T257 709v68h52v-68q91-8 146.5-62.5T517 522h-54q-4 49-51.5 92.5T284 658q-75 2-126.5-34.5T106 527q0-44 23-73t59.5-43 81-24 88.5-23 80.5-32.5 59.5-59 23-97.5z"/><glyph glyph-name="percent" unicode="%" horiz-adv-x="955" d="M44 515q0 81 57 138t138 57q82 0 139-56.5T435 515q0-81-57.5-138.5T239 319q-80 0-137.5 58T44 515zm195 149q-61 0-104-43.5T92 515t43-105.5T239 366q62 0 105.5 43.5T388 515q0 61-44 105t-105 44zm-5-589 463 577 35-29L269 46zm285 111q0 81 57 138t138 57 138-57 57-138-57-138.5T714-10 576 47.5 519 186zm195 149q-61 0-104.5-43.5T566 186t43-105.5T714 37t105 43.5T862 186t-43 105.5T714 335z"/><glyph glyph-name="ampersand" unicode="&amp;" horiz-adv-x="667" d="m314 329 164-159q66 91 84 204h55q-22-134-102-239L659-4h-71L483 97Q381-10 261-10q-98 0-157.5 50T44 173q0 139 155 204-77 92-77 171 0 72 51 117t132 45q83 0 142-63.5T506 494h-54q-3 72-44 118t-102 46q-58 0-94-32t-36-83q0-44 30.5-92T314 329zm132-197L268 303q-25 25-38 39-62-24-97-68t-35-97q0-65 49-100.5T272 44q95 5 174 88z"/><glyph glyph-name="quotesingle" unicode="'" horiz-adv-x="145" d="m52 467-8 233h59L93 467H52z"/><glyph glyph-name="parenleft" unicode="(" horiz-adv-x="310" d="M210-132Q72 101 72 300q0 232 138 423h56Q124 531 124 300q0-196 141-432h-55z"/><glyph glyph-name="parenright" unicode=")" horiz-adv-x="310" d="M101-132H45q141 236 141 432 0 231-142 423h57q138-191 138-423 0-199-138-432z"/><glyph glyph-name="asterisk" unicode="*" horiz-adv-x="465" d="m68 411-24 46 150 71-150 74 24 44 148-88-8 171h51l-7-169 143 88 24-46-148-74 148-73-24-44-143 86 7-168h-51l8 169z"/><glyph glyph-name="plus" unicode="+" horiz-adv-x="603" d="M84 325v52h191v192h54V377h192v-52H329V132h-54v193H84z"/><glyph glyph-name="comma" unicode="," horiz-adv-x="191" d="M44-136 76 61h63V38L92-136H44z"/><glyph glyph-name="hyphen" unicode="-" horiz-adv-x="505" d="M84 324v52h339v-52H84z"/><glyph glyph-name="period" unicode="." horiz-adv-x="222" d="M72 31q0 17 10.5 28.5T111 71t28.5-11.5T150 31q0-18-10.5-29.5T111-10 82.5 1.5 72 31z"/><glyph glyph-name="slash" unicode="/" horiz-adv-x="290" d="m36 0 165 700h53L89 0H36z"/><glyph glyph-name="zero" unicode="0" horiz-adv-x="639" d="M44 350q0 156 77.5 258T319 710q121 0 198.5-101.5T595 350 517.5 91.5 319-10Q199-10 121.5 92T44 350zm275 306q-96 0-158.5-87T98 350t62.5-219T319 44q97 0 159.5 86.5T541 350t-62.5 219.5T319 656z"/><glyph glyph-name="one" unicode="1" horiz-adv-x="361" d="M225 0v643L36 590v55l198 55h45V0h-54z"/><glyph glyph-name="two" unicode="2" horiz-adv-x="630" d="M314 656q-81 0-131.5-55.5T132 455H79q0 113 64.5 184T314 710q99 0 159-56t60-141q0-54-33-109T380 261L173 54h377V0H88v43l248 247q81 83 112 131t31 90q0 63-44.5 104T314 656z"/><glyph glyph-name="three" unicode="3" horiz-adv-x="572" d="M289 44q80 0 131.5 47T472 212q0 70-45.5 110.5T302 363h-69l-30 35 220 248H70v54h430v-43L277 411h26q103 0 162-53.5T524 212q0-97-66.5-159.5T287-10q-102 0-170.5 80T48 266h54q0-95 53.5-158.5T289 44z"/><glyph glyph-name="four" unicode="4" horiz-adv-x="618" d="M48 159v43l385 498h43V211h94v-52h-94V0h-52v159H48zm72 52h304v395z"/><glyph glyph-name="five" unicode="5" horiz-adv-x="572" d="M289 44q80 0 131.5 47T472 212q0 73-46.5 114T298 367H103l-27 31 21 302h377v-54H144l-16-229h175q103 0 162-55.5T524 212q0-97-66.5-159.5T287-10q-102 0-170.5 80T48 266h54q0-95 53.5-158.5T289 44z"/><glyph glyph-name="six" unicode="6" horiz-adv-x="585" d="M48 229q0 194 110.5 320T485 710v-54q-276-49-353-253 67 52 160 52 107 0 176-64t69-162q0-105-68.5-172T292-10 116 57 48 229zm244 178q-78 0-134-50.5T102 229q0-82 53-133.5T292 44q85 0 139 52t54 133q0 77-54.5 127.5T292 407z"/><glyph glyph-name="seven" unicode="7" horiz-adv-x="516" d="M476 700v-43L212 0h-58l261 646H36v54h440z"/><glyph glyph-name="eight" unicode="8" horiz-adv-x="568" d="M36 194q0 56 38 102.5T174 368q-55 25-88.5 67T52 526q0 78 66 131t166 53 166-53 66-131q0-51-35-92.5T391 368q62-25 101.5-72T532 194q0-85-70-144.5T284-10 106 49.5 36 194zm248 195q70 0 124 40.5t54 94.5q0 56-50.5 94T284 656t-128-38-51-95q0-53 54-93.5T284 389zm0-45q-77 0-136-44T89 196q0-62 55.5-107T284 44q83 0 138.5 45T478 196q0 59-59 103.5T284 344z"/><glyph glyph-name="nine" unicode="9" horiz-adv-x="585" d="M537 472q0-194-110.5-320.5T100-10v54q276 49 354 253-65-52-161-52-108 0-176.5 64T48 472q0 104 68.5 171T293 710t176-67 68-171zM293 293q81 0 134.5 49.5T485 463q0 87-52.5 140T293 656q-84 0-137.5-51.5T102 472q0-78 53.5-128.5T293 293z"/><glyph glyph-name="colon" unicode=":" horiz-adv-x="222" d="M72 471q0 17 10.5 28.5T111 511t28.5-11.5T150 471q0-18-10.5-29.5T111 430t-28.5 11.5T72 471zm0-440q0 17 10.5 28.5T111 71t28.5-11.5T150 31q0-18-10.5-29.5T111-10 82.5 1.5 72 31z"/><glyph glyph-name="semicolon" unicode=";" horiz-adv-x="240" d="M90 471q0 17 10.5 28.5T129 511t28.5-11.5T168 471q0-18-10.5-29.5T129 430t-28.5 11.5T90 471zM68-136l32 197h63V38l-49-174H68z"/><glyph glyph-name="less" unicode="&lt;" horiz-adv-x="454" d="M72 338v25l276 239 36-39-250-213 250-213-36-39z"/><glyph glyph-name="equal" unicode="=" horiz-adv-x="582" d="M85 444v54h414v-54H85zm-1-239v54h414v-54H84z"/><glyph glyph-name="greater" unicode="&gt;" horiz-adv-x="454" d="m108 98-36 39 249 213L72 563l36 39 276-239v-25z"/><glyph glyph-name="question" unicode="?" horiz-adv-x="555" d="M215 208q0 48 18 83t44.5 53 57.5 37 57.5 34.5 44.5 45 18 69.5q0 57-50 93t-127 35q-70 0-121.5-39T98 522H44q8 82 74.5 135T279 710q102 0 166-50t64-131q0-55-25.5-93.5t-62-59.5-73.5-40.5-62.5-51T260 208h-45zM197 30q0 17 11.5 28.5T237 70t28.5-11.5T277 30 265.5 1.5 237-10 208.5 1.5 197 30z"/><glyph glyph-name="at" unicode="@" horiz-adv-x="905" d="M451 710q173 0 291.5-116.5T861 307q0-101-36-163.5T729 81q-91 0-119 110-24-49-67-77.5T447 85q-79 0-133.5 59T259 289q0 89 55 146.5T453 493q86 0 139.5-58T646 289q0-164 77-164 41 0 66.5 50.5T815 307q0 151-105.5 255T451 666q-150 0-256-111T89 289q0-159 107.5-270.5T458-93q114 0 224 48l-1-42q-103-50-223-50-173 0-293.5 124T44 289q0 175 119 298t288 123zm2-263q-68 0-108-46.5T305 289q0-68 42-113t106-45q62 0 104 44t44 110q0 69-40 115.5T453 447z"/><glyph glyph-name="A" unicode="A" horiz-adv-x="694" d="m0 0 318 700h58L694 0h-58l-92 202H150L59 0H0zm174 255h346L347 636z"/><glyph glyph-name="B" unicode="B" horiz-adv-x="628" d="M84 0v700h229q111 0 183.5-47.5T569 522q0-129-143-168 166-35 166-170 0-87-74-135.5T313 0H84zm433 514q0 66-56.5 100.5T313 649H136V376h177q94 0 149 37.5T517 514zm23-324q0 67-58.5 102.5T313 328H136V52h177q109 0 168 35.5T540 190z"/><glyph glyph-name="C" unicode="C" horiz-adv-x="748" d="M384 656q-125 0-205.5-86.5T98 350t80.5-219.5T385 44q94 0 170.5 56.5T656 242h56Q685 131 594.5 60.5T385-10Q234-10 139 92.5T44 350q0 156 96 258t245 102q119 0 209.5-70.5T712 458h-56q-24 86-100.5 142T384 656z"/><glyph glyph-name="D" unicode="D" horiz-adv-x="712" d="M84 0v700h205q164 0 271.5-100T668 350 560.5 100 289 0H84zm530 350q0 129-91 212.5T289 646H136V54h153q142 0 233.5 84T614 350z"/><glyph glyph-name="E" unicode="E" horiz-adv-x="558" d="M84 0v700h434v-52H136V376h371v-52H136V52h382V0H84z"/><glyph glyph-name="F" unicode="F" horiz-adv-x="558" d="M84 0v700h434v-52H136V376h371v-52H136V0H84z"/><glyph glyph-name="G" unicode="G" horiz-adv-x="766" d="M370 659q-120 0-196-86.5T98 352t80-221 204-87q122 0 200 73t85 197H358v52h361q1-10 1-32 0-156-93.5-250T382-10Q234-10 139 91.5T44 350t91 258.5T368 710q105 0 185.5-57.5T675 493h-58q-35 78-100 122t-147 44z"/><glyph glyph-name="H" unicode="H" horiz-adv-x="691" d="M84 0v700h52V376h417v324h54V0h-54v324H136V0H84z"/><glyph glyph-name="I" unicode="I" horiz-adv-x="220" d="M84 0v700h52V0H84z"/><glyph glyph-name="J" unicode="J" horiz-adv-x="601" d="M272 46q90 0 141 65t51 186v403h54V297q0-145-67.5-224T272-6Q168-6 102 61.5T36 241h50q0-88 51.5-141.5T272 46z"/><glyph glyph-name="K" unicode="K" horiz-adv-x="627" d="M84 0v700h52V369q46-5 109-18l290 349h68L299 337q100-33 169.5-108T617 0h-59q-93 174-175.5 237T136 319V0H84z"/><glyph glyph-name="L" unicode="L" horiz-adv-x="554" d="M84 0v700h52V52h382V0H84z"/><glyph glyph-name="M" unicode="M" horiz-adv-x="832" d="M84 0v700h43l289-439 289 439h43V0h-52v593L425 189h-18L136 593V0H84z"/><glyph glyph-name="N" unicode="N" horiz-adv-x="739" d="M84 0v700h43L603 98v602h54V0h-45L136 604V0H84z"/><glyph glyph-name="O" unicode="O" horiz-adv-x="774" d="M44 350q0 150 95 255t248 105q151 0 246-105t95-255q0-149-95-254.5T387-10Q235-10 139.5 95.5T44 350zm343 306q-129 0-209-90T98 350t80-216 209-90q128 0 208 90t80 216-80 216-208 90z"/><glyph glyph-name="P" unicode="P" horiz-adv-x="600" d="M84 0v700h224q115 0 185.5-63.5T564 476t-71-160.5T308 252H136V0H84zm427 476q0 74-55.5 122T308 646H136V306h172q92 0 147.5 48T511 476z"/><glyph glyph-name="Q" unicode="Q" horiz-adv-x="774" d="M44 350q0 150 96 255t247 105 246-105 95-255q0-149-95-254.5T387-10 140 95.5 44 350zm343 306q-128 0-208.5-90T98 350t80.5-216T387 44t208.5 90T676 350t-80.5 216T387 656zm21-749h168q100 0 100 93h52q0-139-149-139H412q-50 0-79-23t-29-63h-53q0 60 42.5 96T408-93z"/><glyph glyph-name="R" unicode="R" horiz-adv-x="584" d="M84 0v700h224q115 0 185.5-63.5T564 476q0-80-50-138.5T380 260Q495 196 579 0h-58q-53 121-123 181.5T230 252h-94V0H84zm427 476q0 74-56 122t-147 48H136V306h172q91 0 147 48t56 122z"/><glyph glyph-name="S" unicode="S" horiz-adv-x="565" d="M521 175q0-75-61.5-130T290-10q-112 0-180 59.5T36 196h54q6-57 55-105.5T290 42q80 0 128.5 38.5T467 177q0 46-23 77t-59.5 46.5-81 26.5-88.5 23.5-81 31T74.5 437 52 527q0 77 64.5 130T282 710q103 0 165.5-56T517 522h-54q-4 49-51.5 92.5T284 658q-75 2-126.5-34.5T106 527q0-44 23-73t59.5-43 81-24 88.5-23 80.5-32.5 59.5-59 23-97.5z"/><glyph glyph-name="T" unicode="T" horiz-adv-x="591" d="M268 0v648H36v52h519v-52H322V0h-54z"/><glyph glyph-name="U" unicode="U" horiz-adv-x="697" d="M623 285q0-128-77-211.5T350-10q-120 0-198 83.5T74 285v415h54V285q0-106 62.5-173.5T350 44t159 67.5T571 285v415h52V285z"/><glyph glyph-name="V" unicode="V" horiz-adv-x="652" d="M297 0 0 700h58L326 68l269 632h57L355 0h-58z"/><glyph glyph-name="W" unicode="W" horiz-adv-x="874" d="M229 0 0 700h55L253 94l158 606h54L622 96l197 604h55L647 0h-56L438 595 284 0h-55z"/><glyph glyph-name="X" unicode="X" horiz-adv-x="619" d="M553 0 310 310 66 0H0l277 352L3 700h65l241-306 241 306h66L342 352 619 0h-66z"/><glyph glyph-name="Y" unicode="Y" horiz-adv-x="592" d="M269 263 0 700h62l234-379 234 379h62L323 263V0h-54v263z"/><glyph glyph-name="Z" unicode="Z" horiz-adv-x="613" d="M59 646v54h495v-41L128 54h431V0H54v42l427 604H59z"/><glyph glyph-name="bracketleft" unicode="[" horiz-adv-x="331" d="M84-132v855h202v-52H136V-79h150v-53H84z"/><glyph glyph-name="backslash" unicode="\" horiz-adv-x="290" d="M254 0h-53L36 700h53z"/><glyph glyph-name="bracketright" unicode="]" horiz-adv-x="331" d="M249-132H45v53h150v750H45v52h204v-855z"/><glyph glyph-name="asciicircum" unicode="^" horiz-adv-x="500" d="m50 535 116 165h170l116-165H292l-41 54-41-54H50z"/><glyph glyph-name="underscore" unicode="_" horiz-adv-x="465" d="M54-112v53h357v-53H54z"/><glyph glyph-name="grave" unicode="`" horiz-adv-x="152" d="M54 562 0 700h59l38-138H54z"/><glyph glyph-name="a" unicode="a" horiz-adv-x="584" d="M483 0v109q-31-55-83.5-87T284-10q-101 0-170.5 75T44 250q0 114 69.5 187T290 510q110 0 178.5-74T537 250V0h-54zM290 456q-87 0-139.5-60T98 250q0-87 55-146.5T290 44t137.5 59.5T483 250q0 86-51.5 146T290 456z"/><glyph glyph-name="b" unicode="b" horiz-adv-x="596" d="M112 700V391q31 55 83 87t117 32q103 0 171.5-74T552 250q0-114-69.5-187T306-10q-110 0-178.5 73.5T59 250v450h53zM306 44q87 0 139.5 60.5T498 250q0 87-55 146.5T306 456t-138-59.5T112 250q0-86 52-146t142-60z"/><glyph glyph-name="c" unicode="c" d="M295 456q-84 0-140.5-58T98 250q0-89 56.5-147.5T295 44q71 0 123 40t63 106h56q-13-89-80.5-144.5T295-10q-108 0-179.5 74T44 250q0 113 71.5 186.5T295 510q97 0 163-55t79-144h-56q-12 66-62 105.5T295 456z"/><glyph glyph-name="d" unicode="d" horiz-adv-x="596" d="M483 700h54V250q0-112-68.5-186T290-10q-107 0-176.5 73T44 250q0 112 68.5 186T284 510q64 0 116-31.5t83-85.5v307zM290 44q90 0 141.5 60T483 250q0 87-55.5 146.5T290 456t-137-59.5T98 250q0-86 52.5-146T290 44z"/><glyph glyph-name="e" unicode="e" d="M470 166h57q-25-81-88-128.5T290-10q-107 0-176.5 73.5T44 250t69.5 186.5T292 510q108 0 176.5-72T537 258q0-10-2-26H100q5-87 57.5-140T290 39q63 0 111.5 34.5T470 166zM292 462q-82 0-134.5-53.5T100 268h384q-3 85-56.5 139.5T292 462z"/><glyph glyph-name="f" unicode="f" horiz-adv-x="320" d="M276 660q-161 0-161-160h161v-54H115V0H61v500q0 100 54.5 155T276 710v-50z"/><glyph glyph-name="g" unicode="g" horiz-adv-x="565" d="M59 284q0 99 63 162.5T285 510q98 0 161.5-64T510 284t-63.5-162T285 58q-73 0-129 36-20-11-32.5-30.5T111 22q0-33 20.5-51T188-47h170q68 0 109.5-37.5T510-185h-54q-1 38-29 62t-74 24H182q-56 0-90.5 31T57 13q0 34 18 64t47 45q-63 63-63 162zm226 178q-76 0-124.5-50T112 284t48-127.5T285 107q74 0 122.5 50T456 284q0 76-48.5 127T285 462z"/><glyph glyph-name="h" unicode="h" horiz-adv-x="592" d="M531 250V0h-54v250q0 89-48 147.5T307 456q-75 0-124-58t-49-148V0H82v700h52V395q29 54 76 84.5T315 510q92 0 154-74t62-186z"/><glyph glyph-name="i" unicode="i" horiz-adv-x="242" d="M82 670q0 18 10.5 29t28.5 11 28.5-11 10.5-29q0-17-10.5-28.5T121 630t-28.5 11.5T82 670zM94 0v500h54V0H94z"/><glyph glyph-name="j" unicode="j" horiz-adv-x="210" d="M71 670q0 18 10.5 29t28.5 11 28.5-11 10.5-29q0-17-10.5-28.5T110 630t-28.5 11.5T71 670zM-49-159Q83-159 83 0v500h54V0q0-103-47-156.5T-49-210v51z"/><glyph glyph-name="k" unicode="k" horiz-adv-x="509" d="M82 0v700h52V403q30 50 81.5 78.5T328 510q73 0 118-36.5t45-95.5q0-65-56-108t-148-55q62-29 114.5-80.5T509 0h-61q-78 104-144 152t-170 65V0H82zm52 263q43-5 77-5 100 0 164 30.5t64 85.5q0 40-34.5 63.5T316 458q-75-3-125.5-56T134 263z"/><glyph glyph-name="l" unicode="l" horiz-adv-x="216" d="M82 0v700h52V0H82z"/><glyph glyph-name="m" unicode="m" horiz-adv-x="910" d="M482 250V0h-54v250q0 94-42.5 150T271 456q-74 0-116.5-55.5T112 250V0H59v250q0 118 58.5 189T271 510q63 0 110.5-32t73.5-90q26 58 74.5 90T642 510q94 0 151.5-71.5T851 250V0h-52v250q0 94-43 150t-114 56q-74 0-117-55.5T482 250z"/><glyph glyph-name="n" unicode="n" horiz-adv-x="567" d="M508 250V0h-54v250q0 89-48 147.5T284 456q-75 0-123.5-58T112 250V0H59v250q0 112 64 186t161 74 160.5-74T508 250z"/><glyph glyph-name="o" unicode="o" d="M44 250q0 114 69.5 187T291 510t177-73 69-187q0-113-69-186.5T291-10 113.5 63.5 44 250zm247 206q-85 0-139-57.5T98 250q0-90 54-148t139-58 138.5 58T483 250q0 91-53.5 148.5T291 456z"/><glyph glyph-name="p" unicode="p" horiz-adv-x="596" d="M112-200H59v450q0 113 68.5 186.5T306 510q107 0 176.5-73T552 250q0-112-68.5-186T312-10q-65 0-117 32t-83 87v-309zm194 656q-90 0-142-60t-52-146q0-87 56-146.5T306 44t137 59.5T498 250q0 85-52.5 145.5T306 456z"/><glyph glyph-name="q" unicode="q" horiz-adv-x="596" d="M483-200v307q-31-54-83-85.5T284-10q-103 0-171.5 74T44 250q0 114 69.5 187T290 510q110 0 178.5-74T537 250v-450h-54zM290 456q-87 0-139.5-60T98 250q0-87 55-146.5T290 44t137.5 59.5T483 250q0 86-51.5 146T290 456z"/><glyph glyph-name="r" unicode="r" horiz-adv-x="345" d="M320 510v-54q-102 0-155-52.5T112 250V0H59v250q0 125 68 192.5T320 510z"/><glyph glyph-name="s" unicode="s" horiz-adv-x="478" d="M434 129q0-61-50-100T257-10q-93 0-151 39.5T40 143h53q6-51 47.5-79T256 36q56 0 90 27.5t34 66.5-33.5 62-81 33.5-95 23-81 43.5T56 375q0 57 51.5 96T236 510q87 0 138.5-43.5T432 349h-53q-4 51-41 83t-103 32q-52 0-88.5-26T110 375q0-39 33.5-61.5t81-33 95-23 81-44T434 129z"/><glyph glyph-name="t" unicode="t" horiz-adv-x="308" d="M261 42v-52q-106 0-160.5 55T46 200v418h54V500h161v-54H100V200q0-158 161-158z"/><glyph glyph-name="u" unicode="u" horiz-adv-x="567" d="M508 250q0-112-63.5-186T286-10q-98 0-162.5 74T59 250v250h54V250q0-89 49-147.5T286 44q73 0 121.5 59T456 250v250h52V250z"/><glyph glyph-name="v" unicode="v" horiz-adv-x="507" d="M225 0 0 500h58L254 64l196 436h57L283 0h-58z"/><glyph glyph-name="w" unicode="w" horiz-adv-x="772" d="M194 0 0 500h58L220 80l137 420h58L552 81l163 419h57L579 0h-58L386 412 251 0h-57z"/><glyph glyph-name="x" unicode="x" horiz-adv-x="463" d="M395 0 231 210 66 0H0l198 252L3 500h68l161-205 160 205h67L265 253 463 0h-68z"/><glyph glyph-name="y" unicode="y" horiz-adv-x="565" d="M358-47q68 0 109.5-37.5T510-185h-54q-1 38-29 62t-74 24H176q-53 0-86 31T57 13q0 35 19.5 66t50.5 45q-68 71-68 175v201h53V299q0-81 49-136.5T284 107t123 55.5T456 299v201h54V299q0-99-63.5-170T284 58q-70 0-124 38-21-10-35-30.5T111 22q0-33 20.5-51T188-47h170z"/><glyph glyph-name="z" unicode="z" horiz-adv-x="515" d="M64 446v54h389v-41L134 54h324V0H59v43l317 403H64z"/><glyph glyph-name="braceleft" unicode="{" horiz-adv-x="424" d="M110 296q42 0 69.5-33t27.5-83V62q0-68 42-105.5T366-81v-51q-98 0-154 51T156 59v119q0 83-91 93v50q91 9 91 92v120q0 88 56.5 139T366 723v-50q-75 0-117-38.5T207 528V410q0-49-27.5-81.5T110 296z"/><glyph glyph-name="bar" unicode="|" horiz-adv-x="220" d="M84-132v909h52v-909H84z"/><glyph glyph-name="braceright" unicode="}" horiz-adv-x="412" d="M314 296q-43 0-70 32t-27 82v118q0 68-42 106.5T58 673v50q97 0 153-51t56-139V413q0-83 92-92v-50q-92-11-92-93V59q0-89-55.5-140T58-132v51q75 0 117 37.5T217 62v118q0 50 27.5 83t69.5 33z"/><glyph glyph-name="asciitilde" unicode="~" horiz-adv-x="406" d="M103 415q28 4 60-17.5t65-46 59-24.5q21-1 31 22t10 70h42q0-125-63-134-29-3-61.5 18t-63 45-53.5 25-37.5-25.5T78 281H36q0 58 18 94.5t49 39.5z"/><glyph glyph-name="exclamdown" unicode="¡" horiz-adv-x="207" d="M66 470q0 17 11.5 28.5T106 510t28.5-11.5T146 470t-11.5-28.5T106 430t-28.5 11.5T66 470zm15-670 3 479h45l5-479H81z"/><glyph glyph-name="cent" unicode="¢" d="M295 556q-84 0-140.5-58T98 350q0-89 56.5-147.5T295 144q71 0 123 40t63 106h56q-12-82-71-136.5T322 91V0h-52v91q-98 9-162 81.5T44 350q0 106 64 178t162 81v91h52v-91q87-8 145-62t70-136h-56q-12 66-62 105.5T295 556z"/><glyph glyph-name="sterling" unicode="£" horiz-adv-x="671" d="M88 54q46 12 73 55.5T188 215v111H82v48h106v98q0 108 58 168t163 60h143v-54H412q-83 0-127.5-44.5T240 472v-98h282v-48H240V213q0-104-65-159h415V0H88v54z"/><glyph glyph-name="currency" unicode="¤" horiz-adv-x="640" d="M99 352q0 81 46 143l-74 73 30 31 74-72q63 55 148 55 86 0 148-56l75 73 29-31-75-73q47-63 47-143 0-84-48-146l75-76-30-32-75 76q-61-53-146-53-86 0-146 54l-76-77-30 32 75 76q-47 61-47 146zm224 186q-77 0-129-53t-52-133 52-134 129-54 128.5 54T503 352t-51.5 133T323 538z"/><glyph glyph-name="yen" unicode="¥" horiz-adv-x="592" d="M269 263H86v44h156L0 700h62l234-379 234 379h62L350 307h156v-44H323V152h183v-44H323V0h-54v108H86v44h183v111z"/><glyph glyph-name="brokenbar" unicode="¦" horiz-adv-x="220" d="M84 399v374h54V399H84zm0-531v374h54v-374H84z"/><glyph glyph-name="section" unicode="§" horiz-adv-x="565" d="M521 265q0-48-34-87t-97-57q62-22 96.5-61T521-50q0-72-61-124.5T290-227q-112 0-180 59.5T36-20h54q6-58 55-106.5T290-175q79 0 128 36.5T467-47q0 50-31 82t-77 44.5-100 27-100 30-77 54T51 289q0 50 37.5 91T190 440q-66 22-102.5 58T51 602q0 73 64.5 124T282 777q103 0 165.5-56T516 589h-54q-4 49-51.5 92.5T283 725q-74 0-126-34.5T105 601q0-42 23-69.5t59.5-41 81-23 89-22 81-31.5 59.5-56.5 23-92.5zM290 147q80 0 128.5 33.5T467 268q0 29-11 51.5T430.5 356 388 382t-48.5 18-56.5 15q-72 2-125-35t-53-95q0-28 11-49.5t25-34 43.5-24 48-16.5 57.5-14z"/><glyph glyph-name="dieresis" unicode="¨" horiz-adv-x="431" d="M72 670q0 17 11.5 28.5T112 710t28.5-11.5T152 670t-11.5-28.5T112 630t-28.5 11.5T72 670zm209 0q0 17 11.5 28.5T321 710t28.5-11.5T361 670t-11.5-28.5T321 630t-28.5 11.5T281 670z"/><glyph glyph-name="copyright" unicode="©" horiz-adv-x="809" d="M44 350q0 150 100.5 255T404 710q160 0 260-105t100-255q0-149-100-254.5T404-10Q245-10 144.5 95.5T44 350zm360 322q-143 0-232.5-95T82 350t89.5-227T404 28q144 0 233 94.5T726 350t-89 227.5T404 672zm4-179q-59 0-98.5-40.5T270 350t39.5-103 98.5-41q50 0 86 28t44 74h39q-9-62-56-101t-113-39q-75 0-125.5 52T232 350q0 79 50.5 130T408 531q67 0 113.5-38.5T577 392h-39q-8 46-43.5 73.5T408 493z"/><glyph glyph-name="ordfeminine" unicode="ª" horiz-adv-x="453" d="M362 336v74q-51-82-143-82-74 0-124.5 55T44 519q0 83 51 137t130 54q81 0 130.5-54T405 519V336h-43zM225 666q-63 0-100-43T88 519q0-63 39-105t98-42q58 0 97.5 42.5T362 519t-37 104.5T225 666z"/><glyph glyph-name="guillemotleft" unicode="«" horiz-adv-x="740" d="M72 338v25l276 239 36-39-250-213 250-213-36-39zm284 0v25l276 239 37-39-249-213 249-213-37-39z"/><glyph glyph-name="logicalnot" unicode="¬" horiz-adv-x="684" d="M82 467v54h522V180h-54v287H82z"/><glyph glyph-name="uni00AD" unicode="­" horiz-adv-x="605" d="M84 324v52h437v-52H84z"/><glyph glyph-name="registered" unicode="®" horiz-adv-x="818" d="M44 350q0 150 100.5 255T404 710q160 0 260-105t100-255q0-149-100-254.5T404-10Q245-10 144.5 95.5T44 350zm360 322q-143 0-232.5-95T82 350t89.5-227T404 28q144 0 233 94.5T726 350t-89 227.5T404 672zM285 172v354h126q58 0 93.5-32.5T540 412q0-38-22.5-67T457 305q50-36 91-133h-40q-27 62-60 92.5T370 299h-47V172h-38zm217 240q0 35-24.5 56.5T411 490h-88V337h88q40 0 65.5 21t25.5 54z"/><glyph glyph-name="macron" unicode="¯" horiz-adv-x="444" d="M72 600v48h302v-48H72z"/><glyph glyph-name="degree" unicode="°" horiz-adv-x="479" d="M44 582q0 80 57.5 137.5T239 777q81 0 138.5-57.5T435 582q0-81-57-138.5T239 386q-80 0-137.5 57.5T44 582zm195 147q-61 0-104-43T92 582q0-62 43-105.5T239 433q62 0 105.5 43.5T388 582q0 61-43.5 104T239 729z"/><glyph glyph-name="plusminus" unicode="±" horiz-adv-x="603" d="M84 405v53h191v192h54V458h192v-53H329V213h-54v192H84zm0-354v54h437V51H84z"/><glyph glyph-name="twosuperior" unicode="²" horiz-adv-x="424" d="M212 670q-42 0-68-29t-26-76H79q0 65 37 105t96 40q56 0 89.5-31.5T335 598q0-38-17-69.5T258 457L147 349h199v-40H84v35l138 129q43 42 59 68t16 56q0 32-23.5 52.5T212 670z"/><glyph glyph-name="threesuperior" unicode="³" horiz-adv-x="364" d="M185 339q40 0 66.5 24.5T278 425t-23 57.5-64 20.5h-39l-22 27 119 130H60v40h245v-35L186 539h6q58 0 92-30.5t34-83.5q0-55-38-90.5T184 299q-59 0-97.5 45.5T48 455h40q0-50 27.5-83t69.5-33z"/><glyph glyph-name="acute" unicode="´" horiz-adv-x="152" d="M98 562H55l38 138h59z"/><glyph glyph-name="paragraph" unicode="¶" horiz-adv-x="793" d="M667-121v770H420v-770h-52v283q-129 0-211.5 76T74 432q0 119 79 193.5T368 700h353v-821h-54z"/><glyph glyph-name="periodcentered" unicode="·" horiz-adv-x="222" d="M72 351q0 17 10.5 28.5T111 391t28.5-11.5T150 351q0-18-10.5-29.5T111 310t-28.5 11.5T72 351z"/><glyph glyph-name="cedilla" unicode="¸" horiz-adv-x="312" d="M54-178q61-7 106.5 7t45.5 51q0 52-108 44v95h54v-61q108-11 108-82 0-46-44.5-71.5T102-221q-24 0-48 3v40z"/><glyph glyph-name="onesuperior" unicode="¹" horiz-adv-x="278" d="M155 309v349L36 629v40l124 31h35V309h-40z"/><glyph glyph-name="ordmasculine" unicode="º" horiz-adv-x="479" d="M44 515q0 81 57 138t138 57q82 0 139-56.5T435 515q0-81-57.5-138.5T239 319q-80 0-137.5 58T44 515zm195 149q-61 0-104-43.5T92 515t43-105.5T239 366q62 0 105.5 43.5T388 515q0 61-44 105t-105 44z"/><glyph glyph-name="guillemotright" unicode="»" horiz-adv-x="740" d="m393 98-37 39 250 213-250 213 37 39 276-239v-25zm-285 0-36 39 249 213L72 563l36 39 276-239v-25z"/><glyph glyph-name="onequarter" unicode="¼" horiz-adv-x="866" d="M155 309v349L36 629v40l124 31h35V309h-40zM228 0l315 700h44L272 0h-44zm292 86v34l210 271h35V125h53V86h-53V0h-40v86H520zm51 39h154v199z"/><glyph glyph-name="onehalf" unicode="½" horiz-adv-x="928" d="M155 309v349L36 629v40l124 31h35V309h-40zM225 0l315 700h44L269 0h-44zm490 361q-43 0-68-29t-25-76h-40q0 64 36.5 104.5T714 401q56 0 90.5-31.5T839 289q0-38-17-69.5T762 148L649 40h199V0H587v35l137 129q43 42 59 68t16 56q0 32-22.5 52.5T715 361z"/><glyph glyph-name="threequarters" unicode="¾" horiz-adv-x="909" d="M183 339q41 0 67 24.5t26 61.5-22.5 57.5T191 503h-39l-22 27 118 130H60v40h243v-35L186 539h6q58 0 91-30.5t33-83.5q0-55-37.5-90.5T183 299t-96.5 45.5T48 455h40q0-50 27-83t68-33zM287 0l315 700h44L331 0h-44zm276 86v34l210 271h35V125h53V86h-53V0h-40v86H563zm51 39h154v199z"/><glyph glyph-name="questiondown" unicode="¿" horiz-adv-x="555" d="M197 470q0 17 11.5 28.5T237 510t28.5-11.5T277 470t-11.5-28.5T237 430t-28.5 11.5T197 470zm18-178h45q0-38 18.5-67t46-45 60-35 60-38 46-54T509-29q0-81-64-131t-166-50q-94 0-160.5 53T44-22h54q7-58 58.5-97T278-158q77-1 127 35t50 93q0 40-18 69.5t-44.5 45T335 119t-57.5 37-44.5 53-18 83z"/><glyph glyph-name="Agrave" unicode="À" horiz-adv-x="694" d="m323 762-54 138h59l38-138h-43zM0 0l318 700h58L694 0h-58l-92 202H150L59 0H0zm174 255h346L347 636z"/><glyph glyph-name="Aacute" unicode="Á" horiz-adv-x="694" d="M371 762h-43l38 138h59zM0 0l318 700h58L694 0h-58l-92 202H150L59 0H0zm174 255h346L347 636z"/><glyph glyph-name="Acircumflex" unicode="Â" horiz-adv-x="694" d="m196 762 121 138h60l121-138h-56l-95 105-94-105h-57zM0 0l318 700h58L694 0h-58l-92 202H150L59 0H0zm174 255h346L347 636z"/><glyph glyph-name="Atilde" unicode="Ã" horiz-adv-x="694" d="M248 896q28 4 60-17.5t65-46 59-24.5q21-1 31 22t10 70h42q0-125-63-134-29-3-61.5 18t-63 45-53.5 25-37.5-25.5T223 762h-42q0 58 18 94.5t49 39.5zM0 0l318 700h58L694 0h-58l-92 202H150L59 0H0zm174 255h346L347 636z"/><glyph glyph-name="Adieresis" unicode="Ä" horiz-adv-x="694" d="M205 870q0 17 11.5 28.5T245 910t28.5-11.5T285 870t-11.5-28.5T245 830t-28.5 11.5T205 870zm209 0q0 17 11.5 28.5T454 910t28.5-11.5T494 870t-11.5-28.5T454 830t-28.5 11.5T414 870zM0 0l318 700h58L694 0h-58l-92 202H150L59 0H0zm174 255h346L347 636z"/><glyph glyph-name="Aring" unicode="Å" horiz-adv-x="694" d="m0 0 316 696q-36 8-57 29.5T238 777q0 37 30.5 61t78.5 24 78.5-24 30.5-61q0-30-21-51.5T378 696L694 0h-58l-92 202H150L59 0H0zm346 830q-32 0-52-14.5T274 777q0-23 20.5-37.5T346 725q33 0 53.5 14.5T420 777q0 24-20 38.5T346 830zM174 255h346L347 636z"/><glyph glyph-name="AE" unicode="Æ" horiz-adv-x="1048" d="M536 0v202H217L64 0H0l528 700h442v-52H590V376h369v-52H590V52h380V0H536zM257 255h279v367z"/><glyph glyph-name="Ccedilla" unicode="Ç" horiz-adv-x="748" d="M384 656q-125 0-205.5-86.5T98 350t80.5-219.5T385 44q94 0 170.5 56.5T656 242h56Q685 131 594 60.5T384-10v-32q108-11 108-82 0-46-44.5-71.5T334-221q-24 0-48 3v40q61-7 106.5 7t45.5 51q0 52-108 44v70Q201 13 122.5 111.5T44 350q0 156 96 258t245 102q119 0 209.5-70.5T712 458h-56q-24 86-100.5 142T384 656z"/><glyph glyph-name="Egrave" unicode="È" horiz-adv-x="558" d="m284 762-54 138h59l38-138h-43zM84 0v700h434v-52H136V376h371v-52H136V52h382V0H84z"/><glyph glyph-name="Eacute" unicode="É" horiz-adv-x="558" d="M315 762h-43l38 138h59zM84 0v700h434v-52H136V376h371v-52H136V52h382V0H84z"/><glyph glyph-name="Ecircumflex" unicode="Ê" horiz-adv-x="558" d="m141 762 121 138h60l121-138h-56l-95 105-94-105h-57zM84 0v700h434v-52H136V376h371v-52H136V52h382V0H84z"/><glyph glyph-name="Edieresis" unicode="Ë" horiz-adv-x="558" d="M136 870q0 17 11.5 28.5T176 910t28.5-11.5T216 870t-11.5-28.5T176 830t-28.5 11.5T136 870zm209 0q0 17 11.5 28.5T385 910t28.5-11.5T425 870t-11.5-28.5T385 830t-28.5 11.5T345 870zM84 0v700h434v-52H136V376h371v-52H136V52h382V0H84z"/><glyph glyph-name="Igrave" unicode="Ì" horiz-adv-x="220" d="M91 762 37 900h59l38-138H91zM84 0v700h52V0H84z"/><glyph glyph-name="Iacute" unicode="Í" horiz-adv-x="220" d="M133 762H90l38 138h59zM84 0v700h52V0H84z"/><glyph glyph-name="Icircumflex" unicode="Î" horiz-adv-x="220" d="M-41 762 80 900h60l121-138h-56l-95 105-94-105h-57zM84 0v700h52V0H84z"/><glyph glyph-name="Idieresis" unicode="Ï" horiz-adv-x="220" d="M-34 870q0 17 11.5 28.5T6 910t28.5-11.5T46 870t-11.5-28.5T6 830t-28.5 11.5T-34 870zm209 0q0 17 11.5 28.5T215 910t28.5-11.5T255 870t-11.5-28.5T215 830t-28.5 11.5T175 870zM84 0v700h52V0H84z"/><glyph glyph-name="Eth" unicode="Ð" horiz-adv-x="739" d="M111 0v324H34v52h77v324h205q164 0 271.5-100T695 350 587.5 100 316 0H111zm530 350q0 129-91 212.5T316 646H163V376h210v-52H163V54h153q142 0 233.5 84T641 350z"/><glyph glyph-name="Ntilde" unicode="Ñ" horiz-adv-x="739" d="M270 896q28 4 60-17.5t65-46 59-24.5q21-1 31 22t10 70h42q0-125-63-134-29-3-61.5 18t-63 45-53.5 25-37.5-25.5T245 762h-42q0 58 18 94.5t49 39.5zM84 0v700h43L603 98v602h54V0h-45L136 604V0H84z"/><glyph glyph-name="Ograve" unicode="Ò" horiz-adv-x="774" d="m364 762-54 138h59l38-138h-43zM44 350q0 150 95 255t248 105q151 0 246-105t95-255q0-149-95-254.5T387-10Q235-10 139.5 95.5T44 350zm343 306q-129 0-209-90T98 350t80-216 209-90q128 0 208 90t80 216-80 216-208 90z"/><glyph glyph-name="Oacute" unicode="Ó" horiz-adv-x="774" d="M412 762h-43l38 138h59zM44 350q0 150 95 255t248 105q151 0 246-105t95-255q0-149-95-254.5T387-10Q235-10 139.5 95.5T44 350zm343 306q-129 0-209-90T98 350t80-216 209-90q128 0 208 90t80 216-80 216-208 90z"/><glyph glyph-name="Ocircumflex" unicode="Ô" horiz-adv-x="774" d="m236 762 121 138h60l121-138h-56l-95 105-94-105h-57zM44 350q0 150 95 255t248 105q151 0 246-105t95-255q0-149-95-254.5T387-10Q235-10 139.5 95.5T44 350zm343 306q-129 0-209-90T98 350t80-216 209-90q128 0 208 90t80 216-80 216-208 90z"/><glyph glyph-name="Otilde" unicode="Õ" horiz-adv-x="774" d="M286 896q28 4 60-17.5t65-46 59-24.5q21-1 31 22t10 70h42q0-125-63-134-29-3-61.5 18t-63 45-53.5 25-37.5-25.5T261 762h-42q0 58 18 94.5t49 39.5zM44 350q0 150 95 255t248 105q151 0 246-105t95-255q0-149-95-254.5T387-10Q235-10 139.5 95.5T44 350zm343 306q-129 0-209-90T98 350t80-216 209-90q128 0 208 90t80 216-80 216-208 90z"/><glyph glyph-name="Odieresis" unicode="Ö" horiz-adv-x="770" d="M243 870q0 17 11.5 28.5T283 910t28.5-11.5T323 870t-11.5-28.5T283 830t-28.5 11.5T243 870zm209 0q0 17 11.5 28.5T492 910t28.5-11.5T532 870t-11.5-28.5T492 830t-28.5 11.5T452 870zM25 350q0 150 95 255t248 105q151 0 246-105t95-255q0-149-95-254.5T368-10Q216-10 120.5 95.5T25 350zm343 306q-129 0-209-90T79 350t80-216 209-90q128 0 208 90t80 216-80 216-208 90z"/><glyph glyph-name="multiply" unicode="×" horiz-adv-x="489" d="m72 486 36 38 137-136 136 136 36-38-135-135 135-136-36-38-136 137-137-137-36 38 136 136z"/><glyph glyph-name="Oslash" unicode="Ø" horiz-adv-x="774" d="M44 350q0 150 95 255t248 105q31 0 54-4l17 71h54l-19-83q108-34 171.5-128.5T728 350q0-149-95-254.5T387-10q-32 0-56 4l-18-77h-55l21 89Q171 41 107.5 135.5T44 350zm343 306q-129 0-209-90T98 350q0-99 52-179.5T291 60l138 593q-19 3-42 3zm94-15L343 47q21-3 44-3 128 0 208 90t80 216q0 100-52.5 180.5T481 641z"/><glyph glyph-name="Ugrave" unicode="Ù" horiz-adv-x="689" d="m327 762-54 138h59l38-138h-43zm292-477q0-128-77-211.5T346-10q-120 0-198 83.5T70 285v415h54V285q0-106 62.5-173.5T346 44t159 67.5T567 285v415h52V285z"/><glyph glyph-name="Uacute" unicode="Ú" horiz-adv-x="689" d="M365 762h-43l38 138h59zm254-477q0-128-77-211.5T346-10q-120 0-198 83.5T70 285v415h54V285q0-106 62.5-173.5T346 44t159 67.5T567 285v415h52V285z"/><glyph glyph-name="Ucircumflex" unicode="Û" horiz-adv-x="689" d="m193 762 121 138h60l121-138h-56l-95 105-94-105h-57zm426-477q0-128-77-211.5T346-10q-120 0-198 83.5T70 285v415h54V285q0-106 62.5-173.5T346 44t159 67.5T567 285v415h52V285z"/><glyph glyph-name="Udieresis" unicode="Ü" horiz-adv-x="697" d="M204 870q0 17 11.5 28.5T244 910t28.5-11.5T284 870t-11.5-28.5T244 830t-28.5 11.5T204 870zm209 0q0 17 11.5 28.5T453 910t28.5-11.5T493 870t-11.5-28.5T453 830t-28.5 11.5T413 870zm210-585q0-128-77-211.5T350-10q-120 0-198 83.5T74 285v415h54V285q0-106 62.5-173.5T350 44t159 67.5T571 285v415h52V285z"/><glyph glyph-name="Yacute" unicode="Ý" horiz-adv-x="592" d="M318 762h-43l38 138h59zm-49-499L0 700h62l234-379 234 379h62L323 263V0h-54v263z"/><glyph glyph-name="Thorn" unicode="Þ" horiz-adv-x="590" d="M84 0v700h52V574h171q102 0 170.5-64.5T546 350t-68.5-159T307 127H136V0H84zm408 350q0 73-52.5 121.5T307 520H136V181h171q80 0 132.5 48.5T492 350z"/><glyph glyph-name="germandbls" unicode="ß" horiz-adv-x="633" d="M82 431q0 134 60 206.5T312 710q89 0 148.5-45T520 553q0-62-44.5-111.5T337 349q112-6 177-53.5T579 172q0-81-67-126.5T328 0h-59v52h57q95 0 147.5 32t52.5 91q0 65-67 102t-186 37v37q10 7 37.5 21.5T361 401t48 33.5 39.5 45.5 15.5 55q3 52-40 87t-112 35q-87 0-132.5-58.5T134 429V0H82v431z"/><glyph glyph-name="agrave" unicode="à" horiz-adv-x="584" d="m270 562-54 138h59l38-138h-43zM483 0v109q-31-55-83.5-87T284-10q-101 0-170.5 75T44 250q0 114 69.5 187T290 510q110 0 178.5-74T537 250V0h-54zM290 456q-87 0-139.5-60T98 250q0-87 55-146.5T290 44t137.5 59.5T483 250q0 86-51.5 146T290 456z"/><glyph glyph-name="aacute" unicode="á" horiz-adv-x="584" d="M315 562h-43l38 138h59zM483 0v109q-31-55-83.5-87T284-10q-101 0-170.5 75T44 250q0 114 69.5 187T290 510q110 0 178.5-74T537 250V0h-54zM290 456q-87 0-139.5-60T98 250q0-87 55-146.5T290 44t137.5 59.5T483 250q0 86-51.5 146T290 456z"/><glyph glyph-name="acircumflex" unicode="â" horiz-adv-x="584" d="m142 562 121 138h60l121-138h-56l-95 105-94-105h-57zM483 0v109q-31-55-83.5-87T284-10q-101 0-170.5 75T44 250q0 114 69.5 187T290 510q110 0 178.5-74T537 250V0h-54zM290 456q-87 0-139.5-60T98 250q0-87 55-146.5T290 44t137.5 59.5T483 250q0 86-51.5 146T290 456z"/><glyph glyph-name="atilde" unicode="ã" horiz-adv-x="584" d="M192 696q28 4 60-17.5t65-46 59-24.5q21-1 31 22t10 70h42q0-125-63-134-29-3-61.5 18t-63 45-53.5 25-37.5-25.5T167 562h-42q0 58 18 94.5t49 39.5zM483 0v109q-31-55-83.5-87T284-10q-101 0-170.5 75T44 250q0 114 69.5 187T290 510q110 0 178.5-74T537 250V0h-54zM290 456q-87 0-139.5-60T98 250q0-87 55-146.5T290 44t137.5 59.5T483 250q0 86-51.5 146T290 456z"/><glyph glyph-name="adieresis" unicode="ä" horiz-adv-x="584" d="M148 670q0 17 11.5 28.5T188 710t28.5-11.5T228 670t-11.5-28.5T188 630t-28.5 11.5T148 670zm209 0q0 17 11.5 28.5T397 710t28.5-11.5T437 670t-11.5-28.5T397 630t-28.5 11.5T357 670zM483 0v109q-31-55-83.5-87T284-10q-101 0-170.5 75T44 250q0 114 69.5 187T290 510q110 0 178.5-74T537 250V0h-54zM290 456q-87 0-139.5-60T98 250q0-87 55-146.5T290 44t137.5 59.5T483 250q0 86-51.5 146T290 456z"/><glyph glyph-name="aring" unicode="å" horiz-adv-x="584" d="M186 646q0 37 30.5 61t78.5 24 78.5-24 30.5-61q0-36-30.5-60T295 562t-78.5 24-30.5 60zm108 53q-32 0-52-14.5T222 646q0-23 20.5-37.5T294 594q33 0 53.5 14.5T368 646q0 24-20 38.5T294 699zM483 0v109q-31-55-83.5-87T284-10q-101 0-170.5 75T44 250q0 114 69.5 187T290 510q110 0 178.5-74T537 250V0h-54zM290 456q-87 0-139.5-60T98 250q0-87 55-146.5T290 44t137.5 59.5T483 250q0 86-51.5 146T290 456z"/><glyph glyph-name="ae" unicode="æ" horiz-adv-x="1036" d="M483 0v109q-31-55-83.5-87T284-10q-101 0-170.5 75T44 250q0 114 69.5 187T290 510q80 0 140-41.5T518 357q27 71 87.5 112T746 510q108 0 176.5-72T991 258q0-10-2-26H554q5-87 57.5-140T744 39q63 0 111.5 34.5T924 166h57q-25-81-88-128.5T744-10q-66 0-120 30.5T537 104V0h-54zm263 462q-82 0-134.5-53.5T554 268h384q-3 85-56.5 139.5T746 462zm-456-6q-87 0-139.5-60T98 250q0-87 55-146.5T290 44t137.5 59.5T483 250q0 86-51.5 146T290 456z"/><glyph glyph-name="ccedilla" unicode="ç" d="M295 456q-84 0-140.5-58T98 250q0-89 56.5-147.5T295 44q71 0 123 40t63 106h56q-13-86-77.5-141.5T304-10v-32q108-11 108-82 0-46-44.5-71.5T254-221q-24 0-48 3v40q61-7 106.5 7t45.5 51q0 52-108 44v70Q159 9 101.5 79.5T44 250q0 113 71.5 186.5T295 510q97 0 163-55t79-144h-56q-12 66-62 105.5T295 456z"/><glyph glyph-name="egrave" unicode="è" d="m271 562-54 138h59l38-138h-43zm199-396h57q-25-81-88-128.5T290-10q-107 0-176.5 73.5T44 250t69.5 186.5T292 510q108 0 176.5-72T537 258q0-10-2-26H100q5-87 57.5-140T290 39q63 0 111.5 34.5T470 166zM292 462q-82 0-134.5-53.5T100 268h384q-3 85-56.5 139.5T292 462z"/><glyph glyph-name="eacute" unicode="é" d="M315 562h-43l38 138h59zm155-396h57q-25-81-88-128.5T290-10q-107 0-176.5 73.5T44 250t69.5 186.5T292 510q108 0 176.5-72T537 258q0-10-2-26H100q5-87 57.5-140T290 39q63 0 111.5 34.5T470 166zM292 462q-82 0-134.5-53.5T100 268h384q-3 85-56.5 139.5T292 462z"/><glyph glyph-name="ecircumflex" unicode="ê" d="m140 562 121 138h60l121-138h-56l-95 105-94-105h-57zm330-396h57q-25-81-88-128.5T290-10q-107 0-176.5 73.5T44 250t69.5 186.5T292 510q108 0 176.5-72T537 258q0-10-2-26H100q5-87 57.5-140T290 39q63 0 111.5 34.5T470 166zM292 462q-82 0-134.5-53.5T100 268h384q-3 85-56.5 139.5T292 462z"/><glyph glyph-name="edieresis" unicode="ë" d="M148 670q0 17 11.5 28.5T188 710t28.5-11.5T228 670t-11.5-28.5T188 630t-28.5 11.5T148 670zm209 0q0 17 11.5 28.5T397 710t28.5-11.5T437 670t-11.5-28.5T397 630t-28.5 11.5T357 670zm113-504h57q-25-81-88-128.5T290-10q-107 0-176.5 73.5T44 250t69.5 186.5T292 510q108 0 176.5-72T537 258q0-10-2-26H100q5-87 57.5-140T290 39q63 0 111.5 34.5T470 166zM292 462q-82 0-134.5-53.5T100 268h384q-3 85-56.5 139.5T292 462z"/><glyph glyph-name="igrave" unicode="ì" horiz-adv-x="216" d="M88 562 34 700h59l38-138H88zM82 0v500h52V0H82z"/><glyph glyph-name="iacute" unicode="í" horiz-adv-x="216" d="M130 562H87l38 138h59zM82 0v500h52V0H82z"/><glyph glyph-name="icircumflex" unicode="î" horiz-adv-x="216" d="M-43 562 78 700h60l121-138h-56l-95 105-94-105h-57zM82 0v500h52V0H82z"/><glyph glyph-name="idieresis" unicode="ï" horiz-adv-x="216" d="M-37 670q0 17 11.5 28.5T3 710t28.5-11.5T43 670t-11.5-28.5T3 630t-28.5 11.5T-37 670zm209 0q0 17 11.5 28.5T212 710t28.5-11.5T252 670t-11.5-28.5T212 630t-28.5 11.5T172 670zM82 0v500h52V0H82z"/><glyph glyph-name="eth" unicode="ð" horiz-adv-x="585" d="M537 229q0-105-68-172T293-10 116.5 57 48 229q0 98 69 162t176 64q96 0 161-52-51 131-184 200l-87-97-25 22 80 90q-63 28-148 43l10 49q98-16 175-51l67 75 25-21-62-70q232-125 232-414zM293 407q-84 0-137.5-50.5T102 229q0-81 53.5-133T293 44q88 0 140 53t52 141q-4 70-57.5 119.5T293 407z"/><glyph glyph-name="ntilde" unicode="ñ" horiz-adv-x="567" d="M184 696q28 4 60-17.5t65-46 59-24.5q21-1 31 22t10 70h42q0-125-63-134-29-3-61.5 18t-63 45-53.5 25-37.5-25.5T159 562h-42q0 58 18 94.5t49 39.5zm324-446V0h-54v250q0 89-48 147.5T284 456q-75 0-123.5-58T112 250V0H59v250q0 112 64 186t161 74 160.5-74T508 250z"/><glyph glyph-name="ograve" unicode="ò" d="m269 562-54 138h59l38-138h-43zM44 250q0 114 69.5 187T291 510t177-73 69-187q0-113-69-186.5T291-10 113.5 63.5 44 250zm247 206q-85 0-139-57.5T98 250q0-90 54-148t139-58 138.5 58T483 250q0 91-53.5 148.5T291 456z"/><glyph glyph-name="oacute" unicode="ó" d="M314 562h-43l38 138h59zM44 250q0 114 69.5 187T291 510t177-73 69-187q0-113-69-186.5T291-10 113.5 63.5 44 250zm247 206q-85 0-139-57.5T98 250q0-90 54-148t139-58 138.5 58T483 250q0 91-53.5 148.5T291 456z"/><glyph glyph-name="ocircumflex" unicode="ô" d="m140 562 121 138h60l121-138h-56l-95 105-94-105h-57zM44 250q0 114 69.5 187T291 510t177-73 69-187q0-113-69-186.5T291-10 113.5 63.5 44 250zm247 206q-85 0-139-57.5T98 250q0-90 54-148t139-58 138.5 58T483 250q0 91-53.5 148.5T291 456z"/><glyph glyph-name="otilde" unicode="õ" d="M192 696q28 4 60-17.5t65-46 59-24.5q21-1 31 22t10 70h42q0-125-63-134-29-3-61.5 18t-63 45-53.5 25-37.5-25.5T167 562h-42q0 58 18 94.5t49 39.5zM44 250q0 114 69.5 187T291 510t177-73 69-187q0-113-69-186.5T291-10 113.5 63.5 44 250zm247 206q-85 0-139-57.5T98 250q0-90 54-148t139-58 138.5 58T483 250q0 91-53.5 148.5T291 456z"/><glyph glyph-name="odieresis" unicode="ö" d="M148 670q0 17 11.5 28.5T188 710t28.5-11.5T228 670t-11.5-28.5T188 630t-28.5 11.5T148 670zm209 0q0 17 11.5 28.5T397 710t28.5-11.5T437 670t-11.5-28.5T397 630t-28.5 11.5T357 670zM44 250q0 114 69.5 187T291 510t177-73 69-187q0-113-69-186.5T291-10 113.5 63.5 44 250zm247 206q-85 0-139-57.5T98 250q0-90 54-148t139-58 138.5 58T483 250q0 91-53.5 148.5T291 456z"/><glyph glyph-name="divide" unicode="÷" horiz-adv-x="576" d="M253 549q0 17 11.5 28.5T293 589t28.5-11.5T333 549t-11.5-28.5T293 509t-28.5 11.5T253 549zM60 323v54h466v-54H60zm193-172q0 17 11.5 28.5T293 191t28.5-11.5T333 151t-11.5-28.5T293 111t-28.5 11.5T253 151z"/><glyph glyph-name="oslash" unicode="ø" d="M44 250q0 114 69.5 187T291 510q21 0 39-3l17 72h40l-19-80q78-24 123.5-91T537 250q0-113-69-186.5T291-10q-21 0-39 3l-18-76h-41l20 85Q136 26 90 93T44 250zm247 206q-85 0-139-57.5T98 250q0-71 34.5-123T225 55l93 399q-18 2-27 2zm65-10L264 46q18-2 27-2 85 0 138.5 58T483 250q0 71-34.5 123.5T356 446z"/><glyph glyph-name="ugrave" unicode="ù" horiz-adv-x="567" d="m266 562-54 138h59l38-138h-43zm242-312q0-112-63.5-186T286-10q-98 0-162.5 74T59 250v250h54V250q0-89 49-147.5T286 44q73 0 121.5 59T456 250v250h52V250z"/><glyph glyph-name="uacute" unicode="ú" horiz-adv-x="567" d="M301 562h-43l38 138h59zm207-312q0-112-63.5-186T286-10q-98 0-162.5 74T59 250v250h54V250q0-89 49-147.5T286 44q73 0 121.5 59T456 250v250h52V250z"/><glyph glyph-name="ucircumflex" unicode="û" horiz-adv-x="567" d="m132 562 121 138h60l121-138h-56l-95 105-94-105h-57zm376-312q0-112-63.5-186T286-10q-98 0-162.5 74T59 250v250h54V250q0-89 49-147.5T286 44q73 0 121.5 59T456 250v250h52V250z"/><glyph glyph-name="udieresis" unicode="ü" horiz-adv-x="567" d="M140 670q0 17 11.5 28.5T180 710t28.5-11.5T220 670t-11.5-28.5T180 630t-28.5 11.5T140 670zm209 0q0 17 11.5 28.5T389 710t28.5-11.5T429 670t-11.5-28.5T389 630t-28.5 11.5T349 670zm159-420q0-112-63.5-186T286-10q-98 0-162.5 74T59 250v250h54V250q0-89 49-147.5T286 44q73 0 121.5 59T456 250v250h52V250z"/><glyph glyph-name="yacute" unicode="ý" horiz-adv-x="565" d="M300 562h-43l38 138h59zm58-609q68 0 109.5-37.5T510-185h-54q-1 38-29 62t-74 24H176q-53 0-86 31T57 13q0 35 19.5 66t50.5 45q-68 71-68 175v201h53V299q0-81 49-136.5T284 107t123 55.5T456 299v201h54V299q0-99-63.5-170T284 58q-70 0-124 38-21-10-35-30.5T111 22q0-33 20.5-51T188-47h170z"/><glyph glyph-name="thorn" unicode="þ" horiz-adv-x="596" d="M112-200H59v900h53V394q30 54 82 85t118 31q104 0 172-73t68-187q0-112-68.5-186T312-10q-65 0-117 32t-83 87v-309zm194 656q-90 0-142-60t-52-146q0-87 56-146.5T306 44t137 59.5T498 250q0 85-52.5 145.5T306 456z"/><glyph glyph-name="ydieresis" unicode="ÿ" horiz-adv-x="565" d="M140 670q0 17 11.5 28.5T180 710t28.5-11.5T220 670t-11.5-28.5T180 630t-28.5 11.5T140 670zm209 0q0 17 11.5 28.5T389 710t28.5-11.5T429 670t-11.5-28.5T389 630t-28.5 11.5T349 670zm9-717q68 0 109.5-37.5T510-185h-54q-1 38-29 62t-74 24H176q-53 0-86 31T57 13q0 35 19.5 66t50.5 45q-68 71-68 175v201h53V299q0-81 49-136.5T284 107t123 55.5T456 299v201h54V299q0-99-63.5-170T284 58q-70 0-124 38-21-10-35-30.5T111 22q0-33 20.5-51T188-47h170z"/><glyph glyph-name="Amacron" unicode="Ā" horiz-adv-x="694" d="M198 800v48h302v-48H198zM0 0l318 700h58L694 0h-58l-92 202H150L59 0H0zm174 255h346L347 636z"/><glyph glyph-name="amacron" unicode="ā" horiz-adv-x="584" d="M142 600v48h302v-48H142zM483 0v109q-31-55-83.5-87T284-10q-101 0-170.5 75T44 250q0 114 69.5 187T290 510q110 0 178.5-74T537 250V0h-54zM290 456q-87 0-139.5-60T98 250q0-87 55-146.5T290 44t137.5 59.5T483 250q0 86-51.5 146T290 456z"/><glyph glyph-name="Abreve" unicode="Ă" horiz-adv-x="694" d="M350 762q-69 0-113.5 39.5T192 900h42q0-40 33-67t83-27q49 0 81.5 26.5T464 900h42q0-59-44.5-98.5T350 762zM0 0l318 700h58L694 0h-58l-92 202H150L59 0H0zm174 255h346L347 636z"/><glyph glyph-name="abreve" unicode="ă" horiz-adv-x="584" d="M294 562q-69 0-113.5 39.5T136 700h42q0-40 33-67t83-27q49 0 81.5 26.5T408 700h42q0-59-44.5-98.5T294 562zM483 0v109q-31-55-83.5-87T284-10q-101 0-170.5 75T44 250q0 114 69.5 187T290 510q110 0 178.5-74T537 250V0h-54zM290 456q-87 0-139.5-60T98 250q0-87 55-146.5T290 44t137.5 59.5T483 250q0 86-51.5 146T290 456z"/><glyph glyph-name="Aogonek" unicode="Ą" horiz-adv-x="694" d="m0 0 318 700h58L694 0h2Q596-46 596-108q0-25 16-40t41-15q35 0 66 26v-46q-36-24-75-24-40 0-68 26.5T548-116q0 37 28 69t74 47h-14l-92 202H150L59 0H0zm174 255h346L347 636z"/><glyph glyph-name="aogonek" unicode="ą" horiz-adv-x="584" d="M483 0v109q-31-55-83.5-87T284-10q-101 0-170.5 75T44 250q0 114 69.5 187T290 510q110 0 178.5-74T537 250V0h1Q438-46 438-108q0-25 16-40t41-15q35 0 66 26v-46q-36-24-75-24-40 0-68 26.5T390-116q0 37 28 69t74 47h-9zM290 456q-87 0-139.5-60T98 250q0-87 55-146.5T290 44t137.5 59.5T483 250q0 86-51.5 146T290 456z"/><glyph glyph-name="Cacute" unicode="Ć" horiz-adv-x="748" d="M407 762h-43l38 138h59zm-23-106q-125 0-205.5-86.5T98 350t80.5-219.5T385 44q94 0 170.5 56.5T656 242h56Q685 131 594.5 60.5T385-10Q234-10 139 92.5T44 350q0 156 96 258t245 102q119 0 209.5-70.5T712 458h-56q-24 86-100.5 142T384 656z"/><glyph glyph-name="cacute" unicode="ć" d="M317 562h-43l38 138h59zm-22-106q-84 0-140.5-58T98 250q0-89 56.5-147.5T295 44q71 0 123 40t63 106h56q-13-89-80.5-144.5T295-10q-108 0-179.5 74T44 250q0 113 71.5 186.5T295 510q97 0 163-55t79-144h-56q-12 66-62 105.5T295 456z"/><glyph glyph-name="Ccircumflex" unicode="Ĉ" horiz-adv-x="748" d="m223 762 121 138h60l121-138h-56l-95 105-94-105h-57zm161-106q-125 0-205.5-86.5T98 350t80.5-219.5T385 44q94 0 170.5 56.5T656 242h56Q685 131 594.5 60.5T385-10Q234-10 139 92.5T44 350q0 156 96 258t245 102q119 0 209.5-70.5T712 458h-56q-24 86-100.5 142T384 656z"/><glyph glyph-name="ccircumflex" unicode="ĉ" d="m140 562 121 138h60l121-138h-56l-95 105-94-105h-57zm155-106q-84 0-140.5-58T98 250q0-89 56.5-147.5T295 44q71 0 123 40t63 106h56q-13-89-80.5-144.5T295-10q-108 0-179.5 74T44 250q0 113 71.5 186.5T295 510q97 0 163-55t79-144h-56q-12 66-62 105.5T295 456z"/><glyph glyph-name="Cdotaccent" unicode="Ċ" horiz-adv-x="748" d="M333 870q0 17 11.5 28.5T373 910t28.5-11.5T413 870t-11.5-28.5T373 830t-28.5 11.5T333 870zm51-214q-125 0-205.5-86.5T98 350t80.5-219.5T385 44q94 0 170.5 56.5T656 242h56Q685 131 594.5 60.5T385-10Q234-10 139 92.5T44 350q0 156 96 258t245 102q119 0 209.5-70.5T712 458h-56q-24 86-100.5 142T384 656z"/><glyph glyph-name="cdotaccent" unicode="ċ" d="M251 670q0 17 11.5 28.5T291 710t28.5-11.5T331 670t-11.5-28.5T291 630t-28.5 11.5T251 670zm44-214q-84 0-140.5-58T98 250q0-89 56.5-147.5T295 44q71 0 123 40t63 106h56q-13-89-80.5-144.5T295-10q-108 0-179.5 74T44 250q0 113 71.5 186.5T295 510q97 0 163-55t79-144h-56q-12 66-62 105.5T295 456z"/><glyph glyph-name="Ccaron" unicode="Č" horiz-adv-x="748" d="M223 900h57l94-105 95 105h56L404 762h-60zm161-244q-125 0-205.5-86.5T98 350t80.5-219.5T385 44q94 0 170.5 56.5T656 242h56Q685 131 594.5 60.5T385-10Q234-10 139 92.5T44 350q0 156 96 258t245 102q119 0 209.5-70.5T712 458h-56q-24 86-100.5 142T384 656z"/><glyph glyph-name="ccaron" unicode="č" d="M140 700h57l94-105 95 105h56L321 562h-60zm155-244q-84 0-140.5-58T98 250q0-89 56.5-147.5T295 44q71 0 123 40t63 106h56q-13-89-80.5-144.5T295-10q-108 0-179.5 74T44 250q0 113 71.5 186.5T295 510q97 0 163-55t79-144h-56q-12 66-62 105.5T295 456z"/><glyph glyph-name="Dcaron" unicode="Ď" horiz-adv-x="712" d="M183 900h57l94-105 95 105h56L364 762h-60zM84 0v700h205q164 0 271.5-100T668 350 560.5 100 289 0H84zm530 350q0 129-91 212.5T289 646H136V54h153q142 0 233.5 84T614 350z"/><glyph glyph-name="dcaron" unicode="ď" horiz-adv-x="665" d="M483 700h54V250q0-112-68.5-186T290-10q-107 0-176.5 73T44 250q0 112 68.5 186T284 510q64 0 116-31.5t83-85.5v307zm133-181 28 181h63v-23l-45-158h-46zM290 44q90 0 141.5 60T483 250q0 87-55.5 146.5T290 456t-137-59.5T98 250q0-86 52.5-146T290 44z"/><glyph glyph-name="Dcroat" unicode="Đ" horiz-adv-x="739" d="M111 0v324H34v52h77v324h205q164 0 271.5-100T695 350 587.5 100 316 0H111zm530 350q0 129-91 212.5T316 646H163V376h210v-52H163V54h153q142 0 233.5 84T641 350z"/><glyph glyph-name="dcroat" unicode="đ" horiz-adv-x="634" d="M483 700h54v-86h119v-42H537V250q0-112-68.5-186T290-10q-107 0-176.5 73T44 250q0 112 68.5 186T284 510q64 0 116-31.5t83-85.5v179H340v42h143v86zM290 44q90 0 141.5 60T483 250q0 87-55.5 146.5T290 456t-137-59.5T98 250q0-86 52.5-146T290 44z"/><glyph glyph-name="Emacron" unicode="Ē" horiz-adv-x="558" d="M146 800v48h302v-48H146zM84 0v700h434v-52H136V376h371v-52H136V52h382V0H84z"/><glyph glyph-name="emacron" unicode="ē" d="M141 600v48h302v-48H141zm329-434h57q-25-81-88-128.5T290-10q-107 0-176.5 73.5T44 250t69.5 186.5T292 510q108 0 176.5-72T537 258q0-10-2-26H100q5-87 57.5-140T290 39q63 0 111.5 34.5T470 166zM292 462q-82 0-134.5-53.5T100 268h384q-3 85-56.5 139.5T292 462z"/><glyph glyph-name="Ebreve" unicode="Ĕ" horiz-adv-x="558" d="M281 762q-69 0-113.5 39.5T123 900h42q0-40 33-67t83-27q49 0 81.5 26.5T395 900h42q0-59-44.5-98.5T281 762zM84 0v700h434v-52H136V376h371v-52H136V52h382V0H84z"/><glyph glyph-name="ebreve" unicode="ĕ" d="M294 562q-69 0-113.5 39.5T136 700h42q0-40 33-67t83-27q49 0 81.5 26.5T408 700h42q0-59-44.5-98.5T294 562zm176-396h57q-25-81-88-128.5T290-10q-107 0-176.5 73.5T44 250t69.5 186.5T292 510q108 0 176.5-72T537 258q0-10-2-26H100q5-87 57.5-140T290 39q63 0 111.5 34.5T470 166zM292 462q-82 0-134.5-53.5T100 268h384q-3 85-56.5 139.5T292 462z"/><glyph glyph-name="Edotaccent" unicode="Ė" horiz-adv-x="558" d="M238 870q0 17 11.5 28.5T278 910t28.5-11.5T318 870t-11.5-28.5T278 830t-28.5 11.5T238 870zM84 0v700h434v-52H136V376h371v-52H136V52h382V0H84z"/><glyph glyph-name="edotaccent" unicode="ė" d="M251 670q0 17 11.5 28.5T291 710t28.5-11.5T331 670t-11.5-28.5T291 630t-28.5 11.5T251 670zm219-504h57q-25-81-88-128.5T290-10q-107 0-176.5 73.5T44 250t69.5 186.5T292 510q108 0 176.5-72T537 258q0-10-2-26H100q5-87 57.5-140T290 39q63 0 111.5 34.5T470 166zM292 462q-82 0-134.5-53.5T100 268h384q-3 85-56.5 139.5T292 462z"/><glyph glyph-name="Eogonek" unicode="Ę" horiz-adv-x="558" d="M84 0v700h434v-52H136V376h371v-52H136V52h382V0Q418-46 418-108q0-25 16-40t41-15q35 0 66 26v-46q-36-24-75-24-40 0-68 26.5T370-116q0 37 28 69t74 47H84z"/><glyph glyph-name="eogonek" unicode="ę" d="M470 166h57q-20-62-62.5-105.5T363 0Q263-46 263-108q0-25 16-40t41-15q35 0 66 26v-46q-36-24-75-24-40 0-68 26.5T215-116q0 32 21 60.5T293-10q-110-1-179.5 74T44 250q0 113 69.5 186.5T292 510q108 0 176.5-72T537 258q0-10-2-26H100q5-87 57.5-140T290 39q63 0 111.5 34.5T470 166zM292 462q-82 0-134.5-53.5T100 268h384q-3 85-56.5 139.5T292 462z"/><glyph glyph-name="Ecaron" unicode="Ě" horiz-adv-x="558" d="M127 900h57l94-105 95 105h56L308 762h-60zM84 0v700h434v-52H136V376h371v-52H136V52h382V0H84z"/><glyph glyph-name="ecaron" unicode="ě" d="M140 700h57l94-105 95 105h56L321 562h-60zm330-534h57q-25-81-88-128.5T290-10q-107 0-176.5 73.5T44 250t69.5 186.5T292 510q108 0 176.5-72T537 258q0-10-2-26H100q5-87 57.5-140T290 39q63 0 111.5 34.5T470 166zM292 462q-82 0-134.5-53.5T100 268h384q-3 85-56.5 139.5T292 462z"/><glyph glyph-name="Gcircumflex" unicode="Ĝ" horiz-adv-x="766" d="m231 762 121 138h60l121-138h-56l-95 105-94-105h-57zm139-103q-120 0-196-86.5T98 352t80-221 204-87q122 0 200 73t85 197H358v52h361q1-10 1-32 0-156-93.5-250T382-10Q234-10 139 91.5T44 350t91 258.5T368 710q105 0 185.5-57.5T675 493h-58q-35 78-100 122t-147 44z"/><glyph glyph-name="gcircumflex" unicode="ĝ" horiz-adv-x="565" d="m132 562 121 138h60l121-138h-56l-95 105-94-105h-57zM59 284q0 99 63 162.5T285 510q98 0 161.5-64T510 284t-63.5-162T285 58q-73 0-129 36-20-11-32.5-30.5T111 22q0-33 20.5-51T188-47h170q68 0 109.5-37.5T510-185h-54q-1 38-29 62t-74 24H182q-56 0-90.5 31T57 13q0 34 18 64t47 45q-63 63-63 162zm226 178q-76 0-124.5-50T112 284t48-127.5T285 107q74 0 122.5 50T456 284q0 76-48.5 127T285 462z"/><glyph glyph-name="Gbreve" unicode="Ğ" horiz-adv-x="770" d="M373 762q-69 0-113.5 39.5T215 900h42q0-40 33-67t83-27q49 0 81.5 26.5T487 900h42q0-59-44.5-98.5T373 762zm-22-103q-120 0-196-86.5T79 352t80-221 204-87q122 0 200 73t85 197H339v52h361q1-10 1-32 0-156-93.5-250T363-10Q215-10 120 91.5T25 350t91 258.5T349 710q105 0 185.5-57.5T656 493h-58q-35 78-100 122t-147 44z"/><glyph glyph-name="gbreve" unicode="ğ" horiz-adv-x="567" d="M286 562q-69 0-113.5 39.5T128 700h42q0-40 33-67t83-27q49 0 81.5 26.5T400 700h42q0-59-44.5-98.5T286 562zM59 284q0 99 63 162.5T285 510q98 0 161.5-64T510 284t-63.5-162T285 58q-73 0-129 36-20-11-32.5-30.5T111 22q0-33 20.5-51T188-47h170q68 0 109.5-37.5T510-185h-54q-1 38-29 62t-74 24H182q-56 0-90.5 31T57 13q0 34 18 64t47 45q-63 63-63 162zm226 178q-76 0-124.5-50T112 284t48-127.5T285 107q74 0 122.5 50T456 284q0 76-48.5 127T285 462z"/><glyph glyph-name="Gdotaccent" unicode="Ġ" horiz-adv-x="766" d="M328 870q0 17 11.5 28.5T368 910t28.5-11.5T408 870t-11.5-28.5T368 830t-28.5 11.5T328 870zm42-211q-120 0-196-86.5T98 352t80-221 204-87q122 0 200 73t85 197H358v52h361q1-10 1-32 0-156-93.5-250T382-10Q234-10 139 91.5T44 350t91 258.5T368 710q105 0 185.5-57.5T675 493h-58q-35 78-100 122t-147 44z"/><glyph glyph-name="gdotaccent" unicode="ġ" horiz-adv-x="565" d="M243 670q0 17 11.5 28.5T283 710t28.5-11.5T323 670t-11.5-28.5T283 630t-28.5 11.5T243 670zM59 284q0 99 63 162.5T285 510q98 0 161.5-64T510 284t-63.5-162T285 58q-73 0-129 36-20-11-32.5-30.5T111 22q0-33 20.5-51T188-47h170q68 0 109.5-37.5T510-185h-54q-1 38-29 62t-74 24H182q-56 0-90.5 31T57 13q0 34 18 64t47 45q-63 63-63 162zm226 178q-76 0-124.5-50T112 284t48-127.5T285 107q74 0 122.5 50T456 284q0 76-48.5 127T285 462z"/><glyph glyph-name="uni0122" unicode="Ģ" horiz-adv-x="766" d="M370 659q-120 0-196-86.5T98 352t80-221 204-87q122 0 200 73t85 197H358v52h361q1-10 1-32 0-156-93.5-250T382-10Q234-10 139 91.5T44 350t91 258.5T368 710q105 0 185.5-57.5T675 493h-58q-35 78-100 122t-147 44zm-33-892 28 181h63v-23l-45-158h-46z"/><glyph glyph-name="uni0123" unicode="ģ" horiz-adv-x="565" d="m347 759-28-181h-63v23l45 158h46zM59 284q0 99 63 162.5T285 510q98 0 161.5-64T510 284t-63.5-162T285 58q-73 0-129 36-20-11-32.5-30.5T111 22q0-33 20.5-51T188-47h170q68 0 109.5-37.5T510-185h-54q-1 38-29 62t-74 24H182q-56 0-90.5 31T57 13q0 34 18 64t47 45q-63 63-63 162zm226 178q-76 0-124.5-50T112 284t48-127.5T285 107q74 0 122.5 50T456 284q0 76-48.5 127T285 462z"/><glyph glyph-name="Hcircumflex" unicode="Ĥ" horiz-adv-x="691" d="m194 762 121 138h60l121-138h-56l-95 105-94-105h-57zM84 0v700h52V376h417v324h54V0h-54v324H136V0H84z"/><glyph glyph-name="hcircumflex" unicode="ĥ" horiz-adv-x="592" d="M-43 762 78 900h60l121-138h-56l-95 105-94-105h-57zm574-512V0h-54v250q0 89-48 147.5T307 456q-75 0-124-58t-49-148V0H82v700h52V395q29 54 76 84.5T315 510q92 0 154-74t62-186z"/><glyph glyph-name="Hbar" unicode="Ħ" horiz-adv-x="691" d="M84 0v517H-4v42h88v141h52V559h417v141h54V559h88v-42h-88V0h-54v324H136V0H84zm52 376h417v141H136V376z"/><glyph glyph-name="hbar" unicode="ħ" horiz-adv-x="596" d="M535 250V0h-54v250q0 89-48 147.5T311 456q-75 0-124-58t-49-148V0H86v572H-17v42H86v86h52v-86h161v-42H138V395q29 54 76 84.5T319 510q92 0 154-74t62-186z"/><glyph glyph-name="Itilde" unicode="Ĩ" horiz-adv-x="220" d="M9 896q28 4 60-17.5t65-46 59-24.5q21-1 31 22t10 70h42q0-125-63-134-29-3-61.5 18t-63 45T35 854t-37.5-25.5T-16 762h-42q0 58 18 94.5T9 896zM84 0v700h52V0H84z"/><glyph glyph-name="itilde" unicode="ĩ" horiz-adv-x="216" d="M7 696q28 4 60-17.5t65-46 59-24.5q21-1 31 22t10 70h42q0-125-63-134-29-3-61.5 18t-63 45T33 654t-37.5-25.5T-18 562h-42q0 58 18 94.5T7 696zM82 0v500h52V0H82z"/><glyph glyph-name="Imacron" unicode="Ī" horiz-adv-x="220" d="M-41 800v48h302v-48H-41zM84 0v700h52V0H84z"/><glyph glyph-name="imacron" unicode="ī" horiz-adv-x="216" d="M-43 600v48h302v-48H-43zM82 0v500h52V0H82z"/><glyph glyph-name="Iogonek" unicode="Į" horiz-adv-x="220" d="M84 0v700h52V0h2Q38-46 38-108q0-25 16-40t41-15q35 0 66 26v-46q-36-24-75-24-40 0-68 26.5T-10-116q0 37 28 69T92 0h-8z"/><glyph glyph-name="iogonek" unicode="į" horiz-adv-x="242" d="M82 670q0 18 10.5 29t28.5 11 28.5-11 10.5-29q0-17-10.5-28.5T121 630t-28.5 11.5T82 670zM94 0v500h54V0Q48-46 48-108q0-25 16-40t41-15q35 0 66 26v-46q-36-24-75-24-40 0-68 26.5T0-116q0 37 28 69t74 47h-8z"/><glyph glyph-name="Idotaccent" unicode="İ" horiz-adv-x="220" d="M69 870q0 17 11.5 28.5T109 910t28.5-11.5T149 870t-11.5-28.5T109 830t-28.5 11.5T69 870zM84 0v700h52V0H84z"/><glyph glyph-name="dotlessi" unicode="ı" horiz-adv-x="216" d="M82 0v500h52V0H82z"/><glyph glyph-name="IJ" unicode="Ĳ" horiz-adv-x="821" d="M84 0v700h52V0H84zm408 46q90 0 141 65t51 186v403h54V297q0-145-67.5-224T492-6Q388-6 322 61.5T256 241h50q0-88 51.5-141.5T492 46z"/><glyph glyph-name="ij" unicode="ĳ" horiz-adv-x="451" d="M82 670q0 18 10.5 29t28.5 11 28.5-11 10.5-29q0-17-10.5-28.5T121 630t-28.5 11.5T82 670zm231 0q0 18 10.5 29t28.5 11 28.5-11 10.5-29q0-17-10.5-28.5T352 630t-28.5 11.5T313 670zM94 0v500h54V0H94zm99-159q132 0 132 159v500h54V0q0-103-47-156.5T193-210v51z"/><glyph glyph-name="Jcircumflex" unicode="Ĵ" horiz-adv-x="601" d="m341 762 121 138h60l121-138h-56l-95 105-94-105h-57zM272 46q90 0 141 65t51 186v403h54V297q0-145-67.5-224T272-6Q168-6 102 61.5T36 241h50q0-88 51.5-141.5T272 46z"/><glyph glyph-name="jcircumflex" unicode="ĵ" horiz-adv-x="210" d="M-47 562 74 700h60l121-138h-56l-95 105-94-105h-57zm-2-721Q83-159 83 0v500h54V0q0-103-47-156.5T-49-210v51z"/><glyph glyph-name="uni0136" unicode="Ķ" horiz-adv-x="627" d="M84 0v700h52V369q46-5 109-18l290 349h68L299 337q100-33 169.5-108T617 0h-59q-93 174-175.5 237T136 319V0H84zm184-233 28 181h63v-23l-45-158h-46z"/><glyph glyph-name="uni0137" unicode="ķ" horiz-adv-x="509" d="M82 0v700h52V403q30 50 81.5 78.5T328 510q73 0 118-36.5t45-95.5q0-65-56-108t-148-55q62-29 114.5-80.5T509 0h-61q-78 104-144 152t-170 65V0H82zm52 263q43-5 77-5 100 0 164 30.5t64 85.5q0 40-34.5 63.5T316 458q-75-3-125.5-56T134 263zm83-496 28 181h63v-23l-45-158h-46z"/><glyph glyph-name="kgreenlandic" unicode="ĸ" horiz-adv-x="528" d="M84 0v500h52V286q46-7 90-20l215 234h63L274 249q63-28 115.5-83.5T518 0h-59q-94 128-154.5 172T136 234V0H84z"/><glyph glyph-name="Lacute" unicode="Ĺ" horiz-adv-x="554" d="M136 762H93l38 138h59zM84 0v700h52V52h382V0H84z"/><glyph glyph-name="lacute" unicode="ĺ" horiz-adv-x="216" d="M130 762H87l38 138h59zM82 0v700h52V0H82z"/><glyph glyph-name="uni013B" unicode="Ļ" horiz-adv-x="554" d="M84 0v700h52V52h382V0H84zm165-233 28 181h63v-23l-45-158h-46z"/><glyph glyph-name="uni013C" unicode="ļ" horiz-adv-x="216" d="M82 0v700h52V0H82zM48-233 76-52h63v-23L94-233H48z"/><glyph glyph-name="Lcaron" unicode="Ľ" horiz-adv-x="554" d="M84 0v700h52V52h382V0H84zm269 519 28 181h63v-23l-45-158h-46z"/><glyph glyph-name="lcaron" unicode="ľ" horiz-adv-x="275" d="M82 0v700h52V0H82zm123 519 28 181h63v-23l-45-158h-46z"/><glyph glyph-name="Ldot" unicode="Ŀ" horiz-adv-x="554" d="M84 0v700h52V52h382V0H84zm270 399q0 17 11.5 28.5T394 439t28.5-11.5T434 399t-11.5-28.5T394 359t-28.5 11.5T354 399z"/><glyph glyph-name="ldot" unicode="ŀ" horiz-adv-x="349" d="M82 0v700h52V0H82zm143 399q0 17 11.5 28.5T265 439t28.5-11.5T305 399t-11.5-28.5T265 359t-28.5 11.5T225 399z"/><glyph glyph-name="Lslash" unicode="Ł" horiz-adv-x="554" d="M84 0v343l-141-30v54l141 30v303h52V408l198 43v-54l-198-43V52h382V0H84z"/><glyph glyph-name="lslash" unicode="ł" horiz-adv-x="236" d="M92 0v351l-76-25v53l76 25v296h52V422l75 25v-53l-75-25V0H92z"/><glyph glyph-name="Nacute" unicode="Ń" horiz-adv-x="739" d="M396 762h-43l38 138h59zM84 0v700h43L603 98v602h54V0h-45L136 604V0H84z"/><glyph glyph-name="nacute" unicode="ń" horiz-adv-x="567" d="M300 562h-43l38 138h59zm208-312V0h-54v250q0 89-48 147.5T284 456q-75 0-123.5-58T112 250V0H59v250q0 112 64 186t161 74 160.5-74T508 250z"/><glyph glyph-name="uni0145" unicode="Ņ" horiz-adv-x="739" d="M84 0v700h43L603 98v602h54V0h-45L136 604V0H84zm241-233 28 181h63v-23l-45-158h-46z"/><glyph glyph-name="uni0146" unicode="ņ" horiz-adv-x="567" d="M508 250V0h-54v250q0 89-48 147.5T284 456q-75 0-123.5-58T112 250V0H59v250q0 112 64 186t161 74 160.5-74T508 250zM225-233l28 181h63v-23l-45-158h-46z"/><glyph glyph-name="Ncaron" unicode="Ň" horiz-adv-x="739" d="M219 900h57l94-105 95 105h56L400 762h-60zM84 0v700h43L603 98v602h54V0h-45L136 604V0H84z"/><glyph glyph-name="ncaron" unicode="ň" horiz-adv-x="567" d="M132 700h57l94-105 95 105h56L313 562h-60zm376-450V0h-54v250q0 89-48 147.5T284 456q-75 0-123.5-58T112 250V0H59v250q0 112 64 186t161 74 160.5-74T508 250z"/><glyph glyph-name="napostrophe" unicode="ŉ" horiz-adv-x="575" d="m33 485 28 181h63v-23L79 485H33zm483-235V0h-54v250q0 89-48 147.5T292 456q-75 0-123.5-58T120 250V0H67v250q0 112 64 186t161 74 160.5-74T516 250z"/><glyph glyph-name="Omacron" unicode="Ō" horiz-adv-x="774" d="M236 800v48h302v-48H236zM44 350q0 150 95 255t248 105q151 0 246-105t95-255q0-149-95-254.5T387-10Q235-10 139.5 95.5T44 350zm343 306q-129 0-209-90T98 350t80-216 209-90q128 0 208 90t80 216-80 216-208 90z"/><glyph glyph-name="omacron" unicode="ō" d="M141 600v48h302v-48H141zM44 250q0 114 69.5 187T291 510t177-73 69-187q0-113-69-186.5T291-10 113.5 63.5 44 250zm247 206q-85 0-139-57.5T98 250q0-90 54-148t139-58 138.5 58T483 250q0 91-53.5 148.5T291 456z"/><glyph glyph-name="Obreve" unicode="Ŏ" horiz-adv-x="774" d="M388 762q-69 0-113.5 39.5T230 900h42q0-40 33-67t83-27q49 0 81.5 26.5T502 900h42q0-59-44.5-98.5T388 762zM44 350q0 150 95 255t248 105q151 0 246-105t95-255q0-149-95-254.5T387-10Q235-10 139.5 95.5T44 350zm343 306q-129 0-209-90T98 350t80-216 209-90q128 0 208 90t80 216-80 216-208 90z"/><glyph glyph-name="obreve" unicode="ŏ" d="M294 562q-69 0-113.5 39.5T136 700h42q0-40 33-67t83-27q49 0 81.5 26.5T408 700h42q0-59-44.5-98.5T294 562zM44 250q0 114 69.5 187T291 510t177-73 69-187q0-113-69-186.5T291-10 113.5 63.5 44 250zm247 206q-85 0-139-57.5T98 250q0-90 54-148t139-58 138.5 58T483 250q0 91-53.5 148.5T291 456z"/><glyph glyph-name="Ohungarumlaut" unicode="Ő" horiz-adv-x="774" d="M317 762h-43l38 138h59zm171 0h-43l38 138h59zM44 350q0 150 95 255t248 105q151 0 246-105t95-255q0-149-95-254.5T387-10Q235-10 139.5 95.5T44 350zm343 306q-129 0-209-90T98 350t80-216 209-90q128 0 208 90t80 216-80 216-208 90z"/><glyph glyph-name="ohungarumlaut" unicode="ő" d="M221 562h-43l38 138h59zm171 0h-43l38 138h59zM44 250q0 114 69.5 187T291 510t177-73 69-187q0-113-69-186.5T291-10 113.5 63.5 44 250zm247 206q-85 0-139-57.5T98 250q0-90 54-148t139-58 138.5 58T483 250q0 91-53.5 148.5T291 456z"/><glyph glyph-name="OE" unicode="Œ" horiz-adv-x="1160" d="M44 350q0 150 95 255t248 105q95 0 170-44t119-119v153h434v-52H728V376h371v-52H728V52h382V0H676v154Q632 78 557 34T387-10Q235-10 139.5 95.5T44 350zm343 306q-129 0-209-90T98 350t80-216 209-90q128 0 208 90t80 216-80 216-208 90z"/><glyph glyph-name="oe" unicode="œ" horiz-adv-x="1022" d="M44 250q0 114 69.5 187T291 510q75 0 132-36t87-99q30 63 88 99t133 36q108 0 176.5-72T976 258q0-10-2-26H539q5-87 57.5-140T729 39q63 0 111.5 34.5T909 166h57q-25-81-88-128.5T729-10q-73 0-131 36.5T510 125q-30-63-87.5-99T291-10q-108 0-177.5 73.5T44 250zm687 212q-82 0-134.5-53.5T539 268h384q-3 85-56.5 139.5T731 462zm-440-6q-85 0-139-57.5T98 250q0-90 54-148t139-58 138.5 58T483 250q0 91-53.5 148.5T291 456z"/><glyph glyph-name="Racute" unicode="Ŕ" horiz-adv-x="584" d="M309 762h-43l38 138h59zM84 0v700h224q115 0 185.5-63.5T564 476q0-80-50-138.5T380 260Q495 196 579 0h-58q-53 121-123 181.5T230 252h-94V0H84zm427 476q0 74-56 122t-147 48H136V306h172q91 0 147 48t56 122z"/><glyph glyph-name="racute" unicode="ŕ" horiz-adv-x="345" d="M207 562h-43l38 138h59zm113-52v-54q-102 0-155-52.5T112 250V0H59v250q0 125 68 192.5T320 510z"/><glyph glyph-name="uni0156" unicode="Ŗ" horiz-adv-x="584" d="M84 0v700h224q115 0 185.5-63.5T564 476q0-80-50-138.5T380 260Q495 196 579 0h-58q-53 121-123 181.5T230 252h-94V0H84zm427 476q0 74-56 122t-147 48H136V306h172q91 0 147 48t56 122zM248-233l28 181h63v-23l-45-158h-46z"/><glyph glyph-name="uni0157" unicode="ŗ" horiz-adv-x="345" d="M320 510v-54q-102 0-155-52.5T112 250V0H59v250q0 125 68 192.5T320 510zM24-233 52-52h63v-23L70-233H24z"/><glyph glyph-name="Rcaron" unicode="Ř" horiz-adv-x="584" d="M141 900h57l94-105 95 105h56L322 762h-60zM84 0v700h224q115 0 185.5-63.5T564 476q0-80-50-138.5T380 260Q495 196 579 0h-58q-53 121-123 181.5T230 252h-94V0H84zm427 476q0 74-56 122t-147 48H136V306h172q91 0 147 48t56 122z"/><glyph glyph-name="rcaron" unicode="ř" horiz-adv-x="345" d="M22 700h57l94-105 95 105h56L203 562h-60zm298-190v-54q-102 0-155-52.5T112 250V0H59v250q0 125 68 192.5T320 510z"/><glyph glyph-name="Sacute" unicode="Ś" horiz-adv-x="565" d="M303 762h-43l38 138h59zm218-587q0-75-61.5-130T290-10q-112 0-180 59.5T36 196h54q6-57 55-105.5T290 42q80 0 128.5 38.5T467 177q0 46-23 77t-59.5 46.5-81 26.5-88.5 23.5-81 31T74.5 437 52 527q0 77 64.5 130T282 710q103 0 165.5-56T517 522h-54q-4 49-51.5 92.5T284 658q-75 2-126.5-34.5T106 527q0-44 23-73t59.5-43 81-24 88.5-23 80.5-32.5 59.5-59 23-97.5z"/><glyph glyph-name="sacute" unicode="ś" horiz-adv-x="478" d="M262 562h-43l38 138h59zm172-433q0-61-50-100T257-10q-93 0-151 39.5T40 143h53q6-51 47.5-79T256 36q56 0 90 27.5t34 66.5-33.5 62-81 33.5-95 23-81 43.5T56 375q0 57 51.5 96T236 510q87 0 138.5-43.5T432 349h-53q-4 51-41 83t-103 32q-52 0-88.5-26T110 375q0-39 33.5-61.5t81-33 95-23 81-44T434 129z"/><glyph glyph-name="Scircumflex" unicode="Ŝ" horiz-adv-x="565" d="m132 762 121 138h60l121-138h-56l-95 105-94-105h-57zm389-587q0-75-61.5-130T290-10q-112 0-180 59.5T36 196h54q6-57 55-105.5T290 42q80 0 128.5 38.5T467 177q0 46-23 77t-59.5 46.5-81 26.5-88.5 23.5-81 31T74.5 437 52 527q0 77 64.5 130T282 710q103 0 165.5-56T517 522h-54q-4 49-51.5 92.5T284 658q-75 2-126.5-34.5T106 527q0-44 23-73t59.5-43 81-24 88.5-23 80.5-32.5 59.5-59 23-97.5z"/><glyph glyph-name="scircumflex" unicode="ŝ" horiz-adv-x="478" d="m88 562 121 138h60l121-138h-56l-95 105-94-105H88zm346-433q0-61-50-100T257-10q-93 0-151 39.5T40 143h53q6-51 47.5-79T256 36q56 0 90 27.5t34 66.5-33.5 62-81 33.5-95 23-81 43.5T56 375q0 57 51.5 96T236 510q87 0 138.5-43.5T432 349h-53q-4 51-41 83t-103 32q-52 0-88.5-26T110 375q0-39 33.5-61.5t81-33 95-23 81-44T434 129z"/><glyph glyph-name="Scedilla" unicode="Ş" horiz-adv-x="565" d="M521 175q0-74-60.5-129T294-10v-32q108-11 108-82 0-46-44.5-71.5T244-221q-24 0-48 3v40q61-7 106.5 7t45.5 51q0 52-108 44v70Q149 7 95 63.5T36 196h54q6-57 55-105.5T290 42q80 0 128.5 38.5T467 177q0 46-23 77t-59.5 46.5-81 26.5-88.5 23.5-81 31T74.5 437 52 527q0 77 64.5 130T282 710q103 0 165.5-56T517 522h-54q-4 49-51.5 92.5T284 658q-75 2-126.5-34.5T106 527q0-44 23-73t59.5-43 81-24 88.5-23 80.5-32.5 59.5-59 23-97.5z"/><glyph glyph-name="scedilla" unicode="ş" horiz-adv-x="478" d="M434 129q0-69-55.5-104T250-10v-32q108-11 108-82 0-46-44.5-71.5T200-221q-24 0-48 3v40q61-7 106.5 7t45.5 51q0 52-108 44v71Q129 6 88 44t-48 99h53q6-51 47.5-79T256 36q56 0 90 27.5t34 66.5-33.5 62-81 33.5-95 23-81 43.5T56 375q0 57 51.5 96T236 510q87 0 138.5-43.5T432 349h-53q-4 51-41 83t-103 32q-52 0-88.5-26T110 375q0-39 33.5-61.5t81-33 95-23 81-44T434 129z"/><glyph glyph-name="Scaron" unicode="Š" horiz-adv-x="565" d="M132 900h57l94-105 95 105h56L313 762h-60zm389-725q0-75-61.5-130T290-10q-112 0-180 59.5T36 196h54q6-57 55-105.5T290 42q80 0 128.5 38.5T467 177q0 46-23 77t-59.5 46.5-81 26.5-88.5 23.5-81 31T74.5 437 52 527q0 77 64.5 130T282 710q103 0 165.5-56T517 522h-54q-4 49-51.5 92.5T284 658q-75 2-126.5-34.5T106 527q0-44 23-73t59.5-43 81-24 88.5-23 80.5-32.5 59.5-59 23-97.5z"/><glyph glyph-name="scaron" unicode="š" horiz-adv-x="478" d="M88 700h57l94-105 95 105h56L269 562h-60zm346-571q0-61-50-100T257-10q-93 0-151 39.5T40 143h53q6-51 47.5-79T256 36q56 0 90 27.5t34 66.5-33.5 62-81 33.5-95 23-81 43.5T56 375q0 57 51.5 96T236 510q87 0 138.5-43.5T432 349h-53q-4 51-41 83t-103 32q-52 0-88.5-26T110 375q0-39 33.5-61.5t81-33 95-23 81-44T434 129z"/><glyph glyph-name="uni0162" unicode="Ţ" horiz-adv-x="591" d="M224-178q61-7 106.5 7t45.5 51q0 52-108 44v724H36v52h519v-52H322V-42q108-11 108-82 0-46-44.5-71.5T272-221q-24 0-48 3v40z"/><glyph glyph-name="uni0163" unicode="ţ" horiz-adv-x="308" d="M261 42v-52q-52 0-92 14v-30q108-11 108-82 0-46-44.5-71.5T119-205q-24 0-48 3v40q61-7 106.5 7t45.5 51q0 52-108 44v92Q46 86 46 200v418h54V500h161v-54H100V200q0-158 161-158z"/><glyph glyph-name="Tcaron" unicode="Ť" horiz-adv-x="591" d="M145 900h57l94-105 95 105h56L326 762h-60zM268 0v648H36v52h519v-52H322V0h-54z"/><glyph glyph-name="tcaron" unicode="ť" horiz-adv-x="323" d="m182 560 28 181h63v-23l-45-158h-46zm79-518v-52q-106 0-160.5 55T46 200v418h54V500h161v-54H100V200q0-158 161-158z"/><glyph glyph-name="Tbar" unicode="Ŧ" horiz-adv-x="591" d="M268 0v280H146v48h122v320H36v52h519v-52H322V328h126v-48H322V0h-54z"/><glyph glyph-name="tbar" unicode="ŧ" horiz-adv-x="348" d="M302 42v-52q-106 0-160.5 55T87 200v46H0v38h87v334h54V500h161v-54H141V284h160v-38H141v-46q0-158 161-158z"/><glyph glyph-name="Utilde" unicode="Ũ" horiz-adv-x="689" d="M245 896q28 4 60-17.5t65-46 59-24.5q21-1 31 22t10 70h42q0-125-63-134-29-3-61.5 18t-63 45-53.5 25-37.5-25.5T220 762h-42q0 58 18 94.5t49 39.5zm374-611q0-128-77-211.5T346-10q-120 0-198 83.5T70 285v415h54V285q0-106 62.5-173.5T346 44t159 67.5T567 285v415h52V285z"/><glyph glyph-name="utilde" unicode="ũ" horiz-adv-x="567" d="M184 696q28 4 60-17.5t65-46 59-24.5q21-1 31 22t10 70h42q0-125-63-134-29-3-61.5 18t-63 45-53.5 25-37.5-25.5T159 562h-42q0 58 18 94.5t49 39.5zm324-446q0-112-63.5-186T286-10q-98 0-162.5 74T59 250v250h54V250q0-89 49-147.5T286 44q73 0 121.5 59T456 250v250h52V250z"/><glyph glyph-name="Umacron" unicode="Ū" horiz-adv-x="689" d="M195 800v48h302v-48H195zm424-515q0-128-77-211.5T346-10q-120 0-198 83.5T70 285v415h54V285q0-106 62.5-173.5T346 44t159 67.5T567 285v415h52V285z"/><glyph glyph-name="umacron" unicode="ū" horiz-adv-x="567" d="M134 600v48h302v-48H134zm374-350q0-112-63.5-186T286-10q-98 0-162.5 74T59 250v250h54V250q0-89 49-147.5T286 44q73 0 121.5 59T456 250v250h52V250z"/><glyph glyph-name="Ubreve" unicode="Ŭ" horiz-adv-x="689" d="M347 762q-69 0-113.5 39.5T189 900h42q0-40 33-67t83-27q49 0 81.5 26.5T461 900h42q0-59-44.5-98.5T347 762zm272-477q0-128-77-211.5T346-10q-120 0-198 83.5T70 285v415h54V285q0-106 62.5-173.5T346 44t159 67.5T567 285v415h52V285z"/><glyph glyph-name="ubreve" unicode="ŭ" horiz-adv-x="567" d="M286 562q-69 0-113.5 39.5T128 700h42q0-40 33-67t83-27q49 0 81.5 26.5T400 700h42q0-59-44.5-98.5T286 562zm222-312q0-112-63.5-186T286-10q-98 0-162.5 74T59 250v250h54V250q0-89 49-147.5T286 44q73 0 121.5 59T456 250v250h52V250z"/><glyph glyph-name="Uring" unicode="Ů" horiz-adv-x="689" d="M235 846q0 37 30.5 61t78.5 24 78.5-24 30.5-61q0-36-30.5-60T344 762t-78.5 24-30.5 60zm108 53q-32 0-52-14.5T271 846q0-23 20.5-37.5T343 794q33 0 53.5 14.5T417 846q0 24-20 38.5T343 899zm276-614q0-128-77-211.5T346-10q-120 0-198 83.5T70 285v415h54V285q0-106 62.5-173.5T346 44t159 67.5T567 285v415h52V285z"/><glyph glyph-name="uring" unicode="ů" horiz-adv-x="567" d="M174 646q0 37 30.5 61t78.5 24 78.5-24 30.5-61q0-36-30.5-60T283 562t-78.5 24-30.5 60zm108 53q-32 0-52-14.5T210 646q0-23 20.5-37.5T282 594q33 0 53.5 14.5T356 646q0 24-20 38.5T282 699zm226-449q0-112-63.5-186T286-10q-98 0-162.5 74T59 250v250h54V250q0-89 49-147.5T286 44q73 0 121.5 59T456 250v250h52V250z"/><glyph glyph-name="Uhungarumlaut" unicode="Ű" horiz-adv-x="689" d="M276 762h-43l38 138h59zm171 0h-43l38 138h59zm172-477q0-128-77-211.5T346-10q-120 0-198 83.5T70 285v415h54V285q0-106 62.5-173.5T346 44t159 67.5T567 285v415h52V285z"/><glyph glyph-name="uhungarumlaut" unicode="ű" horiz-adv-x="567" d="M210 562h-43l38 138h59zm171 0h-43l38 138h59zm127-312q0-112-63.5-186T286-10q-98 0-162.5 74T59 250v250h54V250q0-89 49-147.5T286 44q73 0 121.5 59T456 250v250h52V250z"/><glyph glyph-name="Uogonek" unicode="Ų" horiz-adv-x="689" d="M619 285q0-106-54-183T421 0h1Q322-46 322-108q0-25 16-40t41-15q35 0 66 26v-46q-36-24-75-24-40 0-68 26.5T274-116q0 32 21 60.5T352-10q-127 0-204.5 83.5T70 285v415h54V285q0-106 62.5-173.5T346 44t159 67.5T567 285v415h52V285z"/><glyph glyph-name="uogonek" unicode="ų" horiz-adv-x="567" d="M508 250q0-92-44.5-160.5T347-1q-98-46-98-107 0-25 16-40t41-15q35 0 66 26v-46q-36-24-75-24-40 0-68 26.5T201-116q0 32 21 60.5T279-10q-96 3-158 76.5T59 250v250h54V250q0-89 49-147.5T286 44q73 0 121.5 59T456 250v250h52V250z"/><glyph glyph-name="Wcircumflex" unicode="Ŵ" horiz-adv-x="874" d="m286 762 121 138h60l121-138h-56l-95 105-94-105h-57zM229 0 0 700h55L253 94l158 606h54L622 96l197 604h55L647 0h-56L438 595 284 0h-55z"/><glyph glyph-name="wcircumflex" unicode="ŵ" horiz-adv-x="772" d="m235 562 121 138h60l121-138h-56l-95 105-94-105h-57zM194 0 0 500h58L220 80l137 420h58L552 81l163 419h57L579 0h-58L386 412 251 0h-57z"/><glyph glyph-name="Ycircumflex" unicode="Ŷ" horiz-adv-x="592" d="m144 762 121 138h60l121-138h-56l-95 105-94-105h-57zm125-499L0 700h62l234-379 234 379h62L323 263V0h-54v263z"/><glyph glyph-name="ycircumflex" unicode="ŷ" horiz-adv-x="565" d="m132 562 121 138h60l121-138h-56l-95 105-94-105h-57zM358-47q68 0 109.5-37.5T510-185h-54q-1 38-29 62t-74 24H176q-53 0-86 31T57 13q0 35 19.5 66t50.5 45q-68 71-68 175v201h53V299q0-81 49-136.5T284 107t123 55.5T456 299v201h54V299q0-99-63.5-170T284 58q-70 0-124 38-21-10-35-30.5T111 22q0-33 20.5-51T188-47h170z"/><glyph glyph-name="Ydieresis" unicode="Ÿ" horiz-adv-x="592" d="M153 870q0 17 11.5 28.5T193 910t28.5-11.5T233 870t-11.5-28.5T193 830t-28.5 11.5T153 870zm209 0q0 17 11.5 28.5T402 910t28.5-11.5T442 870t-11.5-28.5T402 830t-28.5 11.5T362 870zm-93-607L0 700h62l234-379 234 379h62L323 263V0h-54v263z"/><glyph glyph-name="Zacute" unicode="Ź" horiz-adv-x="613" d="M333 762h-43l38 138h59zM59 646v54h495v-41L128 54h431V0H54v42l427 604H59z"/><glyph glyph-name="zacute" unicode="ź" horiz-adv-x="515" d="M276 562h-43l38 138h59zM64 446v54h389v-41L134 54h324V0H59v43l317 403H64z"/><glyph glyph-name="Zdotaccent" unicode="Ż" horiz-adv-x="613" d="M266 870q0 17 11.5 28.5T306 910t28.5-11.5T346 870t-11.5-28.5T306 830t-28.5 11.5T266 870zM59 646v54h495v-41L128 54h431V0H54v42l427 604H59z"/><glyph glyph-name="zdotaccent" unicode="ż" horiz-adv-x="515" d="M218 670q0 17 11.5 28.5T258 710t28.5-11.5T298 670t-11.5-28.5T258 630t-28.5 11.5T218 670zM64 446v54h389v-41L134 54h324V0H59v43l317 403H64z"/><glyph glyph-name="Zcaron" unicode="Ž" horiz-adv-x="613" d="M155 900h57l94-105 95 105h56L336 762h-60zM59 646v54h495v-41L128 54h431V0H54v42l427 604H59z"/><glyph glyph-name="zcaron" unicode="ž" horiz-adv-x="515" d="M107 700h57l94-105 95 105h56L288 562h-60zM64 446v54h389v-41L134 54h324V0H59v43l317 403H64z"/><glyph glyph-name="longs" unicode="ſ" horiz-adv-x="343" d="M295 659q-161 0-161-159V0H82v500q0 100 53.5 155T295 710v-51z"/><glyph glyph-name="florin" unicode="ƒ" horiz-adv-x="324" d="M280 659q-161 0-161-159h161v-54H119V0q0-90-51.5-140.5T-76-191v52q68 0 104.5 36T65 0v500q0 100 54 155t161 55v-51z"/><glyph glyph-name="uni0218" unicode="Ș" horiz-adv-x="565" d="M521 175q0-75-61.5-130T290-10q-112 0-180 59.5T36 196h54q6-57 55-105.5T290 42q80 0 128.5 38.5T467 177q0 46-23 77t-59.5 46.5-81 26.5-88.5 23.5-81 31T74.5 437 52 527q0 77 64.5 130T282 710q103 0 165.5-56T517 522h-54q-4 49-51.5 92.5T284 658q-75 2-126.5-34.5T106 527q0-44 23-73t59.5-43 81-24 88.5-23 80.5-32.5 59.5-59 23-97.5zM233-233l28 181h63v-23l-45-158h-46z"/><glyph glyph-name="uni0219" unicode="ș" horiz-adv-x="478" d="M434 129q0-61-50-100T257-10q-93 0-151 39.5T40 143h53q6-51 47.5-79T256 36q56 0 90 27.5t34 66.5-33.5 62-81 33.5-95 23-81 43.5T56 375q0 57 51.5 96T236 510q87 0 138.5-43.5T432 349h-53q-4 51-41 83t-103 32q-52 0-88.5-26T110 375q0-39 33.5-61.5t81-33 95-23 81-44T434 129zM191-233l28 181h63v-23l-45-158h-46z"/><glyph glyph-name="uni021A" unicode="Ț" horiz-adv-x="591" d="M268 0v648H36v52h519v-52H322V0h-54zm-34-233 28 181h63v-23l-45-158h-46z"/><glyph glyph-name="uni021B" unicode="ț" horiz-adv-x="308" d="M261 42v-52q-106 0-160.5 55T46 200v418h54V500h161v-54H100V200q0-158 161-158zM108-233l28 181h63v-23l-45-158h-46z"/><glyph glyph-name="uni0237" unicode="ȷ" horiz-adv-x="210" d="M71 670q0 18 10.5 29t28.5 11 28.5-11 10.5-29q0-17-10.5-28.5T110 630t-28.5 11.5T71 670zM-49-159Q83-159 83 0v500h54V0q0-103-47-156.5T-49-210v51z"/><glyph glyph-name="circumflex" unicode="ˆ" horiz-adv-x="302" d="m0 562 121 138h60l121-138h-56l-95 105-94-105H0z"/><glyph glyph-name="caron" unicode="ˇ" horiz-adv-x="302" d="M0 700h57l94-105 95 105h56L181 562h-60z"/><glyph glyph-name="breve" unicode="˘" horiz-adv-x="456" d="M230 562q-69 0-113.5 39.5T72 700h42q0-40 33-67t83-27q49 0 81.5 26.5T344 700h42q0-59-44.5-98.5T230 562z"/><glyph glyph-name="dotaccent" unicode="˙" horiz-adv-x="222" d="M70 670q0 17 11.5 28.5T110 710t28.5-11.5T150 670t-11.5-28.5T110 630t-28.5 11.5T70 670z"/><glyph glyph-name="ring" unicode="˚" horiz-adv-x="294" d="M38 646q0 37 30.5 61t78.5 24 78.5-24 30.5-61q0-36-30.5-60T147 562t-78.5 24T38 646zm108 53q-32 0-52-14.5T74 646q0-23 20.5-37.5T146 594q33 0 53.5 14.5T220 646q0 24-20 38.5T146 699z"/><glyph glyph-name="ogonek" unicode="˛" horiz-adv-x="231" d="M201-137v-46q-36-24-75-24-40 0-68 26.5T30-116q0 37 28 69t74 47h46Q78-46 78-108q0-25 16-40t41-15q35 0 66 26z"/><glyph glyph-name="tilde" unicode="˜" horiz-adv-x="406" d="M103 696q28 4 60-17.5t65-46 59-24.5q21-1 31 22t10 70h42q0-125-63-134-29-3-61.5 18t-63 45-53.5 25-37.5-25.5T78 562H36q0 58 18 94.5t49 39.5z"/><glyph glyph-name="hungarumlaut" unicode="˝" horiz-adv-x="326" d="M98 562H55l38 138h59zm171 0h-43l38 138h59z"/><glyph glyph-name="uni0326" unicode="̦" horiz-adv-x="186" d="M44-233 72-52h63v-23L90-233H44z"/><glyph glyph-name="uni0394" unicode="Δ" horiz-adv-x="694" d="m0 0 318 700h58L694 0H0zm83 54h528L347 636z"/><glyph glyph-name="uni03A9" unicode="Ω" horiz-adv-x="857" d="M355 54V0H76v54h182q-85 47-131.5 127T80 362q0 153 97.5 250.5T428 710q154 0 251.5-97T777 362q0-101-47-181T599 54h183V0H503v54q104 36 162 116.5T723 359q0 132-82.5 215.5T428 658t-213-83.5T132 360q0-108 58.5-188T355 54z"/><glyph glyph-name="uni03BC" unicode="μ" horiz-adv-x="567" d="M508 250q0-112-63.5-186T284-10q-106 0-172 88v-243H59v665h53V250q0-89 48.5-147.5T284 44q74 0 122 58.5T454 250v250h54V250z"/><glyph glyph-name="pi" unicode="π" horiz-adv-x="784" d="M714 42v-52q-91 0-140.5 55T524 200v248H258V0h-53v448H72v52h640v-52H578V200q0-77 35-117.5T714 42z"/><glyph glyph-name="Wgrave" unicode="Ẁ" horiz-adv-x="874" d="m416 762-54 138h59l38-138h-43zM229 0 0 700h55L253 94l158 606h54L622 96l197 604h55L647 0h-56L438 595 284 0h-55z"/><glyph glyph-name="wgrave" unicode="ẁ" horiz-adv-x="772" d="m366 562-54 138h59l38-138h-43zM194 0 0 500h58L220 80l137 420h58L552 81l163 419h57L579 0h-58L386 412 251 0h-57z"/><glyph glyph-name="Wacute" unicode="Ẃ" horiz-adv-x="874" d="M467 762h-43l38 138h59zM229 0 0 700h55L253 94l158 606h54L622 96l197 604h55L647 0h-56L438 595 284 0h-55z"/><glyph glyph-name="wacute" unicode="ẃ" horiz-adv-x="772" d="M419 562h-43l38 138h59zM194 0 0 500h58L220 80l137 420h58L552 81l163 419h57L579 0h-58L386 412 251 0h-57z"/><glyph glyph-name="Wdieresis" unicode="Ẅ" horiz-adv-x="874" d="M295 870q0 17 11.5 28.5T335 910t28.5-11.5T375 870t-11.5-28.5T335 830t-28.5 11.5T295 870zm209 0q0 17 11.5 28.5T544 910t28.5-11.5T584 870t-11.5-28.5T544 830t-28.5 11.5T504 870zM229 0 0 700h55L253 94l158 606h54L622 96l197 604h55L647 0h-56L438 595 284 0h-55z"/><glyph glyph-name="wdieresis" unicode="ẅ" horiz-adv-x="772" d="M244 670q0 17 11.5 28.5T284 710t28.5-11.5T324 670t-11.5-28.5T284 630t-28.5 11.5T244 670zm209 0q0 17 11.5 28.5T493 710t28.5-11.5T533 670t-11.5-28.5T493 630t-28.5 11.5T453 670zM194 0 0 500h58L220 80l137 420h58L552 81l163 419h57L579 0h-58L386 412 251 0h-57z"/><glyph glyph-name="endash" unicode="–" horiz-adv-x="627" d="M84 324v52h459v-52H84z"/><glyph glyph-name="emdash" unicode="—" horiz-adv-x="848" d="M84 324v52h680v-52H84z"/><glyph glyph-name="quoteleft" unicode="‘" horiz-adv-x="184" d="m146 700-32-196H51v22l49 174h46z"/><glyph glyph-name="quoteright" unicode="’" horiz-adv-x="184" d="m36 504 32 196h63v-23L84 504H36z"/><glyph glyph-name="quotesinglbase" unicode="‚" horiz-adv-x="184" d="M36-136 68 61h63V38L84-136H36z"/><glyph glyph-name="quotedblleft" unicode="“" horiz-adv-x="386" d="m146 700-32-196H51v22l49 174h46zm204 0-32-196h-63v22l48 174h47z"/><glyph glyph-name="quotedblright" unicode="”" horiz-adv-x="386" d="m240 504 32 196h63v-23l-49-173h-46zm-204 0 32 196h63v-23L84 504H36z"/><glyph glyph-name="quotedblbase" unicode="„" horiz-adv-x="386" d="m240-136 32 197h63V38l-49-174h-46zm-204 0L68 61h63V38L84-136H36z"/><glyph glyph-name="dagger" unicode="†" horiz-adv-x="410" d="M179-132v684H36v52h143v173h52V604h144v-52H231v-684h-52z"/><glyph glyph-name="daggerdbl" unicode="‡" horiz-adv-x="410" d="M180-132V82H36v52h144v418H36v52h144v173h52V604h143v-52H232V134h143V82H232v-214h-52z"/><glyph glyph-name="bullet" unicode="•" horiz-adv-x="287" d="M72 350q0 33 19.5 52.5T144 422q32 0 51.5-19.5T215 350q0-32-19.5-51.5T144 279q-33 0-52.5 19.5T72 350z"/><glyph glyph-name="ellipsis" unicode="…" horiz-adv-x="666" d="M72 31q0 17 10.5 28.5T111 71t28.5-11.5T150 31q0-18-10.5-29.5T111-10 82.5 1.5 72 31zm222 0q0 17 10.5 28.5T333 71t28.5-11.5T372 31q0-18-10.5-29.5T333-10 304.5 1.5 294 31zm222 0q0 17 10.5 28.5T555 71t28.5-11.5T594 31q0-18-10.5-29.5T555-10 526.5 1.5 516 31z"/><glyph glyph-name="perthousand" unicode="‰" horiz-adv-x="1403" d="M44 515q0 81 57 138t138 57q82 0 139-56.5T435 515q0-81-57.5-138.5T239 319q-80 0-137.5 58T44 515zm195 149q-61 0-104-43.5T92 515t43-105.5T239 366q62 0 105.5 43.5T388 515q0 61-44 105t-105 44zm-5-589 463 577 35-29L269 46zm285 111q0 81 57 138t138 57 138-57 57-138-57-138.5T714-10 576 47.5 519 186zm449 0q0 81 57.5 138t137.5 57q82 0 139-57t57-138-57-138.5T1163-10q-80 0-137.5 57.5T968 186zM714 335q-61 0-104.5-43.5T566 186t43-105.5T714 37t105 43.5T862 186t-43 105.5T714 335zm449 0q-61 0-104-43.5T1016 186t43-105.5T1163 37q62 0 105.5 43.5T1312 186t-44 105.5-105 43.5z"/><glyph glyph-name="guilsinglleft" unicode="‹" horiz-adv-x="454" d="M70 338v25l276 239 37-39-249-213 249-213-37-39z"/><glyph glyph-name="guilsinglright" unicode="›" horiz-adv-x="454" d="m108 98-36 39 249 213L72 563l36 39 276-239v-25z"/><glyph glyph-name="fraction" unicode="⁄" horiz-adv-x="290" d="m36 0 165 700h53L89 0H36z"/><glyph glyph-name="franc" unicode="₣" horiz-adv-x="701" d="M197 0v140H44v48h153v512h434v-52H249V376h371v-52H249V188h175v-48H249V0h-52z"/><glyph glyph-name="lira" unicode="₤" horiz-adv-x="671" d="M88 54q46 12 73 55.5T188 215v10H82v38h106v154H82v38h106v17q0 108 58 168t163 60h143v-54H412q-83 0-127.5-44.5T240 472v-17h282v-38H240V263h282v-38H240v-12q0-104-65-159h415V0H88v54z"/><glyph glyph-name="peseta" unicode="₧" horiz-adv-x="1402" d="M84 0v700h224q115 0 185.5-63.5T564 476t-71-160.5T308 252H136V0H84zm427 476q0 74-55.5 122T308 646H136V306h172q92 0 147.5 48T511 476zM875 42v-52q-106 0-160.5 55T660 200v418h54V500h161v-54H714V200q0-158 161-158zm483 87q0-61-50-100t-127-39q-93 0-151 39.5T964 143h53q6-51 47.5-79T1180 36q56 0 90 27.5t34 66.5-33.5 62-81 33.5-95 23-81 43.5-33.5 83q0 57 51.5 96t128.5 39q87 0 138.5-43.5T1356 349h-53q-4 51-41 83t-103 32q-52 0-88.5-26t-36.5-63q0-39 33.5-61.5t81-33 95-23 81-44T1358 129z"/><glyph glyph-name="Euro" unicode="€" horiz-adv-x="820" d="M484 660q-83 0-145.5-55.5T252 457h309l-11-42H244q-5-35-5-65 0-39 6-75h285l-11-42H255q26-88 87.5-140.5T485 40q80 0 147 58t88 144h56Q748 131 668 60.5T485-10q-106 0-182 66.5T199 233H36l10 42h145q-6 36-6 75 0 37 4 65H67l10 42h120q26 114 104 183.5T485 710q103 0 183-70.5T776 458h-56q-21 87-88 144.5T484 660z"/><glyph glyph-name="uni20BA" unicode="₺" horiz-adv-x="747" d="M230 0h-33v285L72 250v46l125 35v130L72 426v44l125 35v195h53V520l221 62v-45l-221-61V346l221 62v-47l-221-61V190zm404 336h52Q660 172 543 86T230 0l18 58q332 0 386 278z"/><glyph glyph-name="uni2113" unicode="ℓ" horiz-adv-x="488" d="M337 40v-50q-107 0-160.5 55T123 200v35q-37-5-69-5v50q40 2 69 7v204q0 102 41.5 160.5T277 710q75 0 116-50t41-138q0-96-72-171.5T175 245v-45q0-160 162-160zM175 485V298q94 27 151.5 86.5T384 519q0 139-106 139-49 0-76-45t-27-128z"/><glyph glyph-name="trademark" unicode="™" horiz-adv-x="849" d="M163 306v358H36v36h292v-36H201V306h-38zm228 0v394h29l158-238 158 238h29V306h-37v318L586 412h-16L427 626V306h-36z"/><glyph glyph-name="estimated" unicode="℮" horiz-adv-x="618" d="m494 204 26-20q-37-48-92.5-75.5T309 81q-112 0-190.5 79T40 350t78.5 190T309 619q111 0 190-79t79-190q0-11-1-16H130V196q71-82 179-82 113 0 185 90zM130 504V366h349v147q-71 73-170 73-108 0-179-82z"/><glyph glyph-name="partialdiff" unicode="∂" horiz-adv-x="585" d="M534 231q-18-106-97.5-173.5T249-10 84 57 45 229q17 98 98 162t187 64q95 0 152-52-42 204-309 253l10 54q208-35 296-159.5T535 235v-1zM322 407q-84 0-147-50.5T99 229q-15-81 30-133t130-52q83 0 145 51.5T482 229q12 73-32.5 125.5T322 407z"/><glyph glyph-name="product" unicode="∏" horiz-adv-x="705" d="M82-225v925h541v-925h-53v873H134v-873H82z"/><glyph glyph-name="summation" unicode="∑" horiz-adv-x="667" d="m82-171 257 447L82 723v54h505v-54H145l255-447-257-447h444v-54H82v54z"/><glyph glyph-name="minus" unicode="−" horiz-adv-x="605" d="M84 324v52h437v-52H84z"/><glyph glyph-name="uni2215" unicode="∕" horiz-adv-x="290" d="m36 0 165 700h53L89 0H36z"/><glyph glyph-name="radical" unicode="√" horiz-adv-x="699" d="M378 0 197 335H72v54h154L402 69l224 631h56L434 0h-56z"/><glyph glyph-name="infinity" unicode="∞" horiz-adv-x="1003" d="M56 351q0 94 61 160.5T265 578q72 0 125.5-46.5T502 395q59 91 112.5 137T740 578q86 0 147.5-66.5T949 351t-61.5-161T740 123q-49 0-93.5 26t-75 62-69.5 96q-59-91-112-137.5T265 123q-87 0-148 67T56 351zm50 1q0-75 46.5-127T266 173q53 0 102 42.5T474 352q-61 95-108.5 135.5T266 528q-67 0-113.5-51T106 352zm793 0q0 74-46.5 125T739 528q-53 0-101-41T530 352q58-94 107-136.5T739 173q67 0 113.5 52T899 352z"/><glyph glyph-name="integral" unicode="∫" horiz-adv-x="339" d="M292 659q-161 0-161-159V0q0-100-54-155t-161-55v51Q77-159 77 0v500q0 100 54.5 155T292 710v-51z"/><glyph glyph-name="approxequal" unicode="≈" horiz-adv-x="406" d="M103 527q28 4 60-17.5t65-46 59-24.5q21-1 31 22t10 70h42q0-125-63-134-29-3-61.5 18t-63 45-53.5 25-37.5-25.5T78 393H36q0 58 18 94.5t49 39.5zm0-196q28 4 60-17.5t65-46 59-24.5q21-1 31 22t10 70h42q0-125-63-134-29-3-61.5 18t-63 45-53.5 25-37.5-25.5T78 197H36q0 58 18 94.5t49 39.5z"/><glyph glyph-name="notequal" unicode="≠" horiz-adv-x="582" d="M85 444v54h214l48 202h53l-48-202h147v-54H340l-44-185h202v-54H283L235 0h-53l48 205H84v54h159l44 185H85z"/><glyph glyph-name="lessequal" unicode="≤" horiz-adv-x="508" d="M96 428v18l282 195 36-37-244-167 244-165-36-37zM72 60v49h366V60H72z"/><glyph glyph-name="greaterequal" unicode="≥" horiz-adv-x="508" d="m130 235-36 37 244 165L94 604l36 37 284-195v-18zM437 60H72v49h365V60z"/><glyph glyph-name="lozenge" unicode="◊" horiz-adv-x="755" d="m82 238 265 462h61l265-462-265-463h-61zm295-410 235 410-235 409-235-409z"/><glyph glyph-name="longs_t" unicode="ﬅ" horiz-adv-x="592" d="M546 42v-52q-106 0-160.5 55T331 200v459h-66q-161 0-161-165V0H50v494q0 102 54 159t161 57h120V500h161v-54H385V200q0-158 161-158z"/><glyph glyph-name="NULL" horiz-adv-x="0"/><glyph glyph-name="g.ss01" horiz-adv-x="584" d="M484 31v84q-31-55-84-87T284-4Q183-4 113.5 70T44 253q0 113 69.5 185T290 510q110 0 178.5-73T537 252V31q0-110-69-183t-173-73q-91 0-156 54.5T61-29h54q13-64 62.5-103T295-171q81 0 135 57t54 145zM290 458q-87 0-139.5-59.5T98 253q0-88 55-146.5T290 48t138 59 56 145q0 87-52.5 146.5T290 458z"/><glyph glyph-name="gbreve.ss01" horiz-adv-x="565" d="M285 562q-69 0-113.5 39.5T127 700h42q0-40 33-67t83-27q49 0 81.5 26.5T399 700h42q0-59-44.5-98.5T285 562zM484 31v84q-31-55-84-87T284-4Q183-4 113.5 70T44 253q0 113 69.5 185T290 510q110 0 178.5-73T537 252V31q0-110-69-183t-173-73q-91 0-156 54.5T61-29h54q13-64 62.5-103T295-171q81 0 135 57t54 145zM290 458q-87 0-139.5-59.5T98 253q0-88 55-146.5T290 48t138 59 56 145q0 87-52.5 146.5T290 458z"/><glyph glyph-name="gcircumflex.ss01" horiz-adv-x="565" d="m132 562 121 138h60l121-138h-56l-95 105-94-105h-57zM484 31v84q-31-55-84-87T284-4Q183-4 113.5 70T44 253q0 113 69.5 185T290 510q110 0 178.5-73T537 252V31q0-110-69-183t-173-73q-91 0-156 54.5T61-29h54q13-64 62.5-103T295-171q81 0 135 57t54 145zM290 458q-87 0-139.5-59.5T98 253q0-88 55-146.5T290 48t138 59 56 145q0 87-52.5 146.5T290 458z"/><glyph glyph-name="gcommaaccent.ss01" horiz-adv-x="565" d="m347 759-28-181h-63v23l45 158h46zM484 31v84q-31-55-84-87T284-4Q183-4 113.5 70T44 253q0 113 69.5 185T290 510q110 0 178.5-73T537 252V31q0-110-69-183t-173-73q-91 0-156 54.5T61-29h54q13-64 62.5-103T295-171q81 0 135 57t54 145zM290 458q-87 0-139.5-59.5T98 253q0-88 55-146.5T290 48t138 59 56 145q0 87-52.5 146.5T290 458z"/><glyph glyph-name="gdotaccent.ss01" horiz-adv-x="565" d="M243 670q0 17 11.5 28.5T283 710t28.5-11.5T323 670t-11.5-28.5T283 630t-28.5 11.5T243 670zM484 31v84q-31-55-84-87T284-4Q183-4 113.5 70T44 253q0 113 69.5 185T290 510q110 0 178.5-73T537 252V31q0-110-69-183t-173-73q-91 0-156 54.5T61-29h54q13-64 62.5-103T295-171q81 0 135 57t54 145zM290 458q-87 0-139.5-59.5T98 253q0-88 55-146.5T290 48t138 59 56 145q0 87-52.5 146.5T290 458z"/><glyph glyph-name="y.ss02" horiz-adv-x="512" d="M229 0 0 500h58L259 65l195 435h58L205-183h-57L230 0h-1z"/><glyph glyph-name="yacute.ss02" horiz-adv-x="512" d="M284 562h-43l38 138h59zM229 0 0 500h58L259 65l195 435h58L205-183h-57L230 0h-1z"/><glyph glyph-name="ycircumflex.ss02" horiz-adv-x="512" d="m110 562 121 138h60l121-138h-56l-95 105-94-105h-57zM229 0 0 500h58L259 65l195 435h58L205-183h-57L230 0h-1z"/><glyph glyph-name="ydieresis.ss02" horiz-adv-x="512" d="M117 670q0 17 11.5 28.5T157 710t28.5-11.5T197 670t-11.5-28.5T157 630t-28.5 11.5T117 670zm209 0q0 17 11.5 28.5T366 710t28.5-11.5T406 670t-11.5-28.5T366 630t-28.5 11.5T326 670zM229 0 0 500h58L259 65l195 435h58L205-183h-57L230 0h-1z"/><glyph glyph-name="ygrave.ss02" horiz-adv-x="512" d="m249 562-54 138h59l38-138h-43zM229 0 0 500h58L259 65l195 435h58L205-183h-57L230 0h-1z"/></font>
</defs>
</svg>
